# Blender 4.3.2
# www.blender.org
mtllib player.mtl
o Cube
v 0.380501 3.957633 -0.444525
v 0.370287 3.013285 -0.363712
v -0.472981 3.987319 -0.443939
v -0.460339 3.019734 -0.366279
v -0.509319 3.019689 -0.247275
v -0.547700 3.023697 0.000000
v 0.274694 3.011496 -0.424842
v -0.007064 2.997544 -0.447241
v -0.292151 3.003194 -0.458566
v 0.403986 3.879112 -0.475886
v 0.436063 3.414837 -0.467453
v 0.409545 3.186425 -0.428094
v -0.509008 3.879694 -0.472918
v -0.506677 3.408884 -0.467298
v -0.484512 3.193783 -0.426814
v 0.444730 4.020525 -0.263242
v 0.468952 4.031496 0.000000
v -0.538253 4.085580 0.000000
v -0.513995 4.073099 -0.267907
v -0.309384 4.000352 -0.533067
v -0.007389 4.023299 -0.552362
v 0.280185 4.007936 -0.537686
v 0.432799 3.007152 0.000000
v 0.422288 3.000544 -0.234381
v 0.296990 4.126197 -0.284988
v -0.006616 4.171750 -0.297876
v -0.312356 4.135890 -0.284108
v 0.313923 4.148528 0.000000
v -0.005615 4.197148 0.000000
v -0.310422 4.156615 0.000000
v -0.577611 3.225641 0.000000
v -0.622025 3.423668 0.000000
v -0.609648 3.883833 0.000000
v -0.538937 3.208456 -0.251366
v -0.593127 3.423912 -0.255940
v -0.581578 3.878723 -0.255262
v -0.169847 2.953910 -0.189362
v -0.000537 2.958789 -0.257027
v 0.159565 2.952940 -0.189023
v -0.212971 2.946690 0.000000
v 0.205840 2.946434 0.000000
v 0.509040 3.207626 -0.257984
v 0.546613 3.411283 -0.264232
v 0.540065 3.874416 -0.263179
v 0.546281 3.213221 0.000000
v 0.581594 3.407965 0.000000
v 0.569889 3.879694 0.000000
v -0.298577 3.161394 -0.521928
v -0.310072 3.402797 -0.571866
v -0.304932 3.878513 -0.601122
v -0.007335 3.150921 -0.546143
v -0.008496 3.398679 -0.601729
v -0.005342 3.877159 -0.628167
v 0.287554 3.161394 -0.521929
v 0.299049 3.399724 -0.572197
v 0.292854 3.872109 -0.601261
v 0.433081 3.648181 -0.489795
v -0.522884 3.641843 -0.488082
v -0.635260 3.653320 0.000000
v -0.607106 3.653705 -0.256534
v 0.554129 3.649182 -0.264889
v 0.586557 3.648034 0.000000
v -0.305943 3.641385 -0.603220
v -0.005415 3.641810 -0.636074
v 0.294652 3.640294 -0.604239
v -0.089772 2.666952 -0.153961
v -0.009200 2.666268 -0.186643
v 0.070883 2.665589 -0.152777
v -0.123637 2.665457 0.000000
v -0.009085 2.665535 0.000000
v 0.086850 2.665353 0.000000
v 0.380501 3.957633 0.444525
v 0.370287 3.013285 0.363712
v -0.472981 3.987319 0.443939
v -0.460339 3.019734 0.366279
v -0.509319 3.019689 0.247275
v 0.274694 3.011496 0.424842
v -0.007064 2.997544 0.447241
v -0.292151 3.003194 0.458566
v 0.403986 3.879112 0.475886
v 0.436063 3.414837 0.467453
v 0.409545 3.186425 0.428094
v -0.509008 3.879694 0.472918
v -0.506677 3.408884 0.467298
v -0.484512 3.193783 0.426814
v 0.444730 4.020525 0.263242
v -0.513995 4.073099 0.267907
v -0.309384 4.000352 0.533067
v -0.007389 4.023299 0.552362
v 0.280185 4.007936 0.537686
v 0.422288 3.000544 0.234381
v 0.296990 4.126197 0.284988
v -0.006616 4.171750 0.297876
v -0.312356 4.135890 0.284108
v -0.538937 3.208456 0.251366
v -0.593127 3.423912 0.255940
v -0.581578 3.878723 0.255262
v -0.169847 2.953910 0.189362
v -0.000537 2.958789 0.257027
v 0.159565 2.952940 0.189023
v 0.509040 3.207626 0.257984
v 0.546613 3.411283 0.264232
v 0.540065 3.874416 0.263179
v -0.298577 3.161394 0.521928
v -0.310072 3.402797 0.571866
v -0.304932 3.878513 0.601122
v -0.007335 3.150921 0.546143
v -0.008496 3.398679 0.601729
v -0.005342 3.877159 0.628167
v 0.287554 3.161394 0.521929
v 0.299049 3.399724 0.572197
v 0.292854 3.872109 0.601261
v 0.433081 3.648181 0.489795
v -0.522884 3.641843 0.488082
v -0.607106 3.653705 0.256534
v 0.554129 3.649182 0.264889
v -0.305943 3.641385 0.603220
v -0.005415 3.641810 0.636074
v 0.294652 3.640294 0.604239
v -0.089772 2.666952 0.153961
v -0.009200 2.666268 0.186643
v 0.070883 2.665589 0.152777
vn 0.1506 0.9849 -0.0853
vn -0.1255 0.9890 -0.0777
vn 0.6134 0.6816 -0.3990
vn 0.1122 0.8779 -0.4655
vn -0.1103 0.8655 -0.4887
vn -0.3064 0.8309 -0.4644
vn -0.2992 0.9517 -0.0693
vn 0.5943 0.7988 -0.0931
vn -0.9653 -0.2315 -0.1208
vn -0.9877 0.1112 -0.1095
vn -0.9394 0.3262 -0.1049
vn -0.8887 0.3225 -0.3259
vn -0.9395 0.0917 -0.3301
vn -0.9258 -0.1979 -0.3220
vn -0.9286 -0.1940 -0.3164
vn -0.9780 -0.1505 -0.1447
vn 0.9212 -0.3477 -0.1746
vn 0.3749 -0.2282 -0.8985
vn -0.1655 -0.9818 -0.0935
vn -0.0242 -0.9831 -0.1816
vn 0.0604 -0.9763 -0.2076
vn 0.1418 -0.9759 -0.1660
vn 0.2134 -0.9766 -0.0284
vn -0.2033 -0.9781 -0.0451
vn 0.9744 -0.1804 -0.1340
vn 0.9908 0.0671 -0.1173
vn 0.8328 -0.3711 -0.4108
vn 0.8612 -0.1780 -0.4761
vn 0.8584 0.0985 -0.5035
vn 0.7595 0.4651 -0.4548
vn 0.8307 0.5473 -0.1022
vn 0.8956 -0.4384 -0.0760
vn -0.0940 -0.2123 -0.9727
vn -0.0993 0.0213 -0.9948
vn 0.0909 -0.2137 -0.9727
vn 0.0979 0.0235 -0.9949
vn -0.4758 -0.3455 -0.8089
vn -0.4690 -0.2048 -0.8591
vn -0.4997 0.0471 -0.8649
vn -0.4764 0.3972 -0.7844
vn -0.0846 0.4697 -0.8788
vn 0.0788 0.4451 -0.8920
vn 0.7003 0.3845 -0.6014
vn 0.6888 0.0723 -0.7213
vn 0.6156 -0.1967 -0.7631
vn 0.5560 -0.4417 -0.7042
vn 0.0905 -0.5432 -0.8347
vn -0.0327 -0.4622 -0.8862
vn 0.6248 -0.0794 -0.7768
vn -0.4677 -0.1090 -0.8771
vn 0.0995 -0.1350 -0.9858
vn -0.1035 -0.1329 -0.9857
vn 0.8790 -0.0317 -0.4757
vn 0.9916 -0.0261 -0.1266
vn -0.9319 -0.0772 -0.3544
vn -0.9921 -0.0589 -0.1105
vn -0.0043 -1.0000 -0.0070
vn -0.0044 -1.0000 -0.0026
vn -0.9318 -0.2913 -0.2164
vn -0.3613 -0.2104 -0.9084
vn -0.3340 -0.9417 0.0415
vn 0.1506 0.9849 0.0853
vn -0.1255 0.9890 0.0777
vn 0.6134 0.6816 0.3990
vn 0.1122 0.8779 0.4655
vn -0.1103 0.8655 0.4887
vn -0.3064 0.8309 0.4644
vn -0.2992 0.9517 0.0693
vn 0.5943 0.7988 0.0931
vn -0.9653 -0.2315 0.1208
vn -0.9877 0.1112 0.1095
vn -0.9394 0.3262 0.1049
vn -0.8887 0.3225 0.3259
vn -0.9395 0.0917 0.3301
vn -0.9258 -0.1979 0.3220
vn -0.9286 -0.1940 0.3164
vn -0.9780 -0.1505 0.1447
vn 0.9212 -0.3477 0.1746
vn 0.3749 -0.2282 0.8985
vn -0.1655 -0.9818 0.0935
vn -0.0242 -0.9831 0.1816
vn 0.0604 -0.9763 0.2076
vn 0.1418 -0.9759 0.1660
vn 0.2134 -0.9766 0.0284
vn -0.2033 -0.9781 0.0451
vn 0.9744 -0.1804 0.1340
vn 0.9908 0.0671 0.1173
vn 0.8328 -0.3711 0.4108
vn 0.8612 -0.1780 0.4761
vn 0.8584 0.0985 0.5035
vn 0.7595 0.4651 0.4548
vn 0.8307 0.5473 0.1022
vn 0.8956 -0.4384 0.0760
vn -0.0940 -0.2123 0.9727
vn -0.0993 0.0213 0.9948
vn 0.0909 -0.2137 0.9727
vn 0.0979 0.0235 0.9949
vn -0.4758 -0.3455 0.8089
vn -0.4690 -0.2048 0.8591
vn -0.4997 0.0471 0.8649
vn -0.4764 0.3972 0.7844
vn -0.0846 0.4697 0.8788
vn 0.0788 0.4451 0.8920
vn 0.7003 0.3845 0.6014
vn 0.6888 0.0723 0.7213
vn 0.6156 -0.1967 0.7631
vn 0.5560 -0.4417 0.7042
vn 0.0905 -0.5432 0.8347
vn -0.0327 -0.4622 0.8862
vn 0.6248 -0.0794 0.7768
vn -0.4677 -0.1090 0.8771
vn 0.0995 -0.1350 0.9858
vn -0.1035 -0.1329 0.9857
vn 0.8790 -0.0317 0.4757
vn 0.9916 -0.0261 0.1266
vn -0.9319 -0.0772 0.3544
vn -0.9921 -0.0589 0.1105
vn -0.0043 -1.0000 0.0070
vn -0.0044 -1.0000 0.0026
vn -0.9318 -0.2913 0.2164
vn -0.3613 -0.2104 0.9084
vn -0.3340 -0.9417 -0.0415
vt 0.686954 0.570735
vt 0.749644 0.568969
vt 0.749121 0.608945
vt 0.684120 0.613476
vt 0.812625 0.569269
vt 0.813272 0.604401
vt 0.632577 0.494305
vt 0.687250 0.515388
vt 0.638695 0.567081
vt 0.749891 0.534674
vt 0.812551 0.523221
vt 0.866828 0.520190
vt 0.883646 0.563528
vt 0.882587 0.624415
vt 0.638008 0.622464
vt 0.435573 0.125308
vt 0.482616 0.125083
vt 0.478217 0.186284
vt 0.419269 0.189274
vt 0.536177 0.125023
vt 0.583171 0.125090
vt 0.582855 0.184366
vt 0.535287 0.184891
vt 0.615849 0.125331
vt 0.616532 0.184452
vt 0.622526 0.238662
vt 0.580147 0.238014
vt 0.532986 0.246986
vt 0.479321 0.249153
vt 0.422226 0.235614
vt 0.360601 0.199630
vt 0.375430 0.238140
vt 0.362445 0.126535
vt 0.312433 0.549609
vt 0.311627 0.623738
vt 0.250195 0.548841
vt 0.139365 0.521927
vt 0.185001 0.492699
vt 0.186904 0.540292
vt 0.138734 0.554244
vt 0.250517 0.483591
vt 0.318487 0.480316
vt 0.390033 0.502401
vt 0.371002 0.566140
vt 0.365841 0.611832
vt 0.188039 0.623750
vt 0.139379 0.624499
vt 0.432397 0.565597
vt 0.481759 0.565826
vt 0.481238 0.606071
vt 0.430465 0.603169
vt 0.530324 0.562304
vt 0.575239 0.566132
vt 0.575239 0.610039
vt 0.530603 0.605254
vt 0.427048 0.508313
vt 0.480526 0.503052
vt 0.529532 0.503083
vt 0.577215 0.494003
vt 0.437500 0.312500
vt 0.483136 0.312500
vt 0.483136 0.374391
vt 0.437500 0.374611
vt 0.530179 0.312226
vt 0.581199 0.310104
vt 0.582325 0.372935
vt 0.530309 0.373387
vt 0.483136 0.437500
vt 0.437500 0.437500
vt 0.581399 0.438760
vt 0.530202 0.437644
vt 0.387211 0.312500
vt 0.636572 0.303008
vt 0.648388 0.374826
vt 0.637365 0.442492
vt 0.393052 0.437500
vt 0.393051 0.375264
vt 0.249645 0.623779
s 0
usemtl Material
f 25/1/1 26/2/1 29/3/1 28/4/1
f 26/2/2 27/5/2 30/6/2 29/3/2
f 1/7/3 22/8/3 25/1/3 16/9/3
f 22/8/4 21/10/4 26/2/4 25/1/4
f 21/10/5 20/11/5 27/5/5 26/2/5
f 20/11/6 3/12/6 19/13/6 27/5/6
f 27/5/7 19/13/7 18/14/7 30/6/7
f 16/9/8 25/1/8 28/4/8 17/15/8
f 31/16/9 32/17/9 35/18/9 34/19/9
f 59/20/10 33/21/10 36/22/10 60/23/10
f 33/21/11 18/24/11 19/25/11 36/22/11
f 36/22/12 19/25/12 3/26/12 13/27/12
f 60/23/13 36/22/13 13/27/13 58/28/13
f 34/19/14 35/18/14 14/29/14 15/30/14
f 5/31/15 34/19/15 15/30/15 4/32/15
f 6/33/16 31/16/16 34/19/16 5/31/16
f 39/34/17 41/35/17 71/35/17 68/34/17
f 38/36/18 39/34/18 68/34/18 67/36/18
f 4/37/19 9/38/19 37/39/19 5/40/19
f 9/38/20 8/41/20 38/36/20 37/39/20
f 8/41/21 7/42/21 39/34/21 38/36/21
f 7/42/22 2/43/22 24/44/22 39/34/22
f 39/34/23 24/44/23 23/45/23 41/35/23
f 5/40/24 37/39/24 40/46/24 6/47/24
f 42/48/25 43/49/25 46/50/25 45/51/25
f 61/52/26 44/53/26 47/54/26 62/55/26
f 2/43/27 12/56/27 42/48/27 24/44/27
f 12/56/28 11/57/28 43/49/28 42/48/28
f 57/58/29 10/59/29 44/53/29 61/52/29
f 10/59/30 1/7/30 16/9/30 44/53/30
f 44/53/31 16/9/31 17/15/31 47/54/31
f 24/44/32 42/48/32 45/51/32 23/45/32
f 48/60/33 49/61/33 52/62/33 51/63/33
f 63/64/34 50/65/34 53/66/34 64/67/34
f 51/63/35 52/62/35 55/68/35 54/69/35
f 64/67/36 53/66/36 56/70/36 65/71/36
f 4/32/37 15/30/37 48/60/37 9/72/37
f 15/30/38 14/29/38 49/61/38 48/60/38
f 58/28/39 13/27/39 50/65/39 63/64/39
f 13/27/40 3/26/40 20/73/40 50/65/40
f 50/65/41 20/73/41 21/74/41 53/66/41
f 53/66/42 21/74/42 22/75/42 56/70/42
f 56/70/43 22/75/43 1/7/43 10/59/43
f 65/71/44 56/70/44 10/59/44 57/58/44
f 54/69/45 55/68/45 11/57/45 12/56/45
f 7/76/46 54/69/46 12/56/46 2/43/46
f 8/77/47 51/63/47 54/69/47 7/76/47
f 9/72/48 48/60/48 51/63/48 8/77/48
f 55/68/49 65/71/49 57/58/49 11/57/49
f 14/29/50 58/28/50 63/64/50 49/61/50
f 52/62/51 64/67/51 65/71/51 55/68/51
f 49/61/52 63/64/52 64/67/52 52/62/52
f 11/57/53 57/58/53 61/52/53 43/49/53
f 43/49/54 61/52/54 62/55/54 46/50/54
f 35/18/55 60/23/55 58/28/55 14/29/55
f 32/17/56 59/20/56 60/23/56 35/18/56
f 66/39/57 67/36/57 70/78/57 69/46/57
f 67/36/58 68/34/58 71/35/58 70/78/58
f 40/46/59 37/39/59 66/39/59 69/46/59
f 37/39/60 38/36/60 67/36/60 66/39/60
f 23/45/61 2/43/61 24/44/61
f 92/1/62 28/4/62 29/3/62 93/2/62
f 93/2/63 29/3/63 30/6/63 94/5/63
f 72/7/64 86/9/64 92/1/64 90/8/64
f 90/8/65 92/1/65 93/2/65 89/10/65
f 89/10/66 93/2/66 94/5/66 88/11/66
f 88/11/67 94/5/67 87/13/67 74/12/67
f 94/5/68 30/6/68 18/14/68 87/13/68
f 86/9/69 17/15/69 28/4/69 92/1/69
f 31/16/70 95/19/70 96/18/70 32/17/70
f 59/20/71 115/23/71 97/22/71 33/21/71
f 33/21/72 97/22/72 87/25/72 18/24/72
f 97/22/73 83/27/73 74/26/73 87/25/73
f 115/23/74 114/28/74 83/27/74 97/22/74
f 95/19/75 85/30/75 84/29/75 96/18/75
f 76/31/76 75/32/76 85/30/76 95/19/76
f 6/33/77 76/31/77 95/19/77 31/16/77
f 100/34/78 122/34/78 71/35/78 41/35/78
f 99/36/79 121/36/79 122/34/79 100/34/79
f 75/37/80 76/40/80 98/39/80 79/38/80
f 79/38/81 98/39/81 99/36/81 78/41/81
f 78/41/82 99/36/82 100/34/82 77/42/82
f 77/42/83 100/34/83 91/44/83 73/43/83
f 100/34/84 41/35/84 23/45/84 91/44/84
f 76/40/85 6/47/85 40/46/85 98/39/85
f 101/48/86 45/51/86 46/50/86 102/49/86
f 116/52/87 62/55/87 47/54/87 103/53/87
f 73/43/88 91/44/88 101/48/88 82/56/88
f 82/56/89 101/48/89 102/49/89 81/57/89
f 113/58/90 116/52/90 103/53/90 80/59/90
f 80/59/91 103/53/91 86/9/91 72/7/91
f 103/53/92 47/54/92 17/15/92 86/9/92
f 91/44/93 23/45/93 45/51/93 101/48/93
f 104/60/94 107/63/94 108/62/94 105/61/94
f 117/64/95 118/67/95 109/66/95 106/65/95
f 107/63/96 110/69/96 111/68/96 108/62/96
f 118/67/97 119/71/97 112/70/97 109/66/97
f 75/32/98 79/72/98 104/60/98 85/30/98
f 85/30/99 104/60/99 105/61/99 84/29/99
f 114/28/100 117/64/100 106/65/100 83/27/100
f 83/27/101 106/65/101 88/73/101 74/26/101
f 106/65/102 109/66/102 89/74/102 88/73/102
f 109/66/103 112/70/103 90/75/103 89/74/103
f 112/70/104 80/59/104 72/7/104 90/75/104
f 119/71/105 113/58/105 80/59/105 112/70/105
f 110/69/106 82/56/106 81/57/106 111/68/106
f 77/76/107 73/43/107 82/56/107 110/69/107
f 78/77/108 77/76/108 110/69/108 107/63/108
f 79/72/109 78/77/109 107/63/109 104/60/109
f 111/68/110 81/57/110 113/58/110 119/71/110
f 84/29/111 105/61/111 117/64/111 114/28/111
f 108/62/112 111/68/112 119/71/112 118/67/112
f 105/61/113 108/62/113 118/67/113 117/64/113
f 81/57/114 102/49/114 116/52/114 113/58/114
f 102/49/115 46/50/115 62/55/115 116/52/115
f 96/18/116 84/29/116 114/28/116 115/23/116
f 32/17/117 96/18/117 115/23/117 59/20/117
f 120/39/118 69/46/118 70/78/118 121/36/118
f 121/36/119 70/78/119 71/35/119 122/34/119
f 40/46/120 69/46/120 120/39/120 98/39/120
f 98/39/121 120/39/121 121/36/121 99/36/121
f 23/45/122 91/44/122 73/43/122
o body
v 0.006350 1.227381 -0.449687
v -0.003954 1.705523 -0.513402
v 0.186358 1.227381 -0.361008
v 0.216091 1.699609 -0.391573
v 0.186358 1.227381 -0.183649
v 0.208551 1.653644 -0.168993
v 0.006350 1.227381 -0.094970
v -0.004228 1.635984 -0.052388
v -0.151111 1.227381 -0.183649
v -0.206452 1.653226 -0.167991
v -0.151111 1.227381 -0.361008
v -0.206077 1.699408 -0.390764
v -0.002627 1.866899 -0.506032
v 0.210901 1.838972 -0.389603
v 0.213643 1.767637 -0.165069
v -0.004375 1.711678 -0.047425
v -0.211510 1.766488 -0.170886
v -0.209116 1.832458 -0.393135
v -0.006767 1.978567 -0.482030
v 0.213844 1.978474 -0.373113
v 0.225597 1.808719 -0.130632
v -0.004302 1.738453 -0.039060
v -0.249829 1.824744 -0.113615
v -0.253257 1.975894 -0.371566
v -0.004164 1.770779 0.000615
v -0.000662 1.978567 0.000615
v 0.232617 1.832088 0.000615
v 0.277377 1.960297 0.000615
v -0.253915 1.842065 0.000615
v -0.294793 1.972409 0.000615
v -0.004836 1.628494 -0.459582
v 0.188036 1.613613 -0.365310
v 0.185176 1.584218 -0.176781
v -0.004875 1.569007 -0.082579
v -0.175061 1.583830 -0.176790
v -0.175007 1.613584 -0.365291
v -0.006519 1.643793 -0.510151
v 0.233071 1.624255 -0.389172
v 0.228632 1.588928 -0.171165
v -0.006585 1.573557 -0.060812
v -0.222553 1.587956 -0.165882
v -0.222414 1.624180 -0.389124
v -0.000133 2.124994 -0.457976
v 0.217660 2.131619 -0.381491
v 0.284729 2.131894 0.000615
v -0.294078 2.132354 0.000615
v -0.247515 2.130785 -0.385338
v -0.255316 2.794054 -0.358134
v 0.181139 2.761125 -0.357962
v -0.276394 2.131804 -0.181675
v -0.296019 2.811365 0.000615
v -0.285618 2.804789 -0.169249
v -0.258960 2.679816 -0.356687
v -0.263884 2.553781 -0.357923
v -0.241575 2.279974 -0.380305
v 0.146046 2.126473 -0.440417
v -0.000133 2.124994 -0.457976
v -0.167473 2.125241 -0.456437
v -0.194128 2.834630 -0.415307
v -0.011886 2.863473 -0.412977
v 0.142792 2.820960 -0.414030
v 0.188927 2.678692 -0.357140
v 0.205514 2.554238 -0.357823
v 0.214787 2.280174 -0.368454
v 0.260003 2.129687 -0.179641
v 0.220441 2.771800 -0.170443
v 0.245930 2.775008 0.000615
v -0.293642 2.285467 0.000615
v -0.325328 2.564204 0.000615
v -0.317989 2.683387 0.000615
v -0.275739 2.279088 -0.180979
v -0.305109 2.560130 -0.170385
v -0.301839 2.679730 -0.169897
v -0.169760 2.280041 -0.430734
v -0.177620 2.550389 -0.429425
v -0.198543 2.684036 -0.421128
v -0.001420 2.279225 -0.426967
v -0.005046 2.494111 -0.434265
v 0.145099 2.283508 -0.428360
v 0.155570 2.551985 -0.428172
v 0.158963 2.684417 -0.421082
v 0.271126 2.279312 -0.181464
v 0.257817 2.559978 -0.170662
v 0.234635 2.679003 -0.169565
v 0.293921 2.283054 0.000615
v 0.281247 2.563910 0.000615
v 0.260590 2.682469 0.000615
v 0.168264 2.829392 -0.164961
v -0.013714 2.899157 -0.164517
v -0.191397 2.862346 -0.164762
v 0.182319 2.832497 0.000615
v -0.010769 2.914241 0.000615
v -0.195864 2.862136 0.000615
v -0.192566 2.682690 -0.479892
v -0.153502 2.576605 -0.477306
v 0.149951 2.682906 -0.479620
v -0.151842 2.819081 -0.477723
v 0.138021 2.573196 -0.479172
v -0.005510 2.854566 -0.479081
v -0.000055 2.530003 -0.476930
v 0.127314 2.818816 -0.477715
v -0.137034 2.816532 -0.607588
v 0.102496 2.580257 -0.609182
v -0.008408 2.842813 -0.606168
v -0.006531 2.538821 -0.608561
v 0.105618 2.816218 -0.608228
v -0.179651 2.681818 -0.604539
v -0.136889 2.577791 -0.606738
v 0.149327 2.682387 -0.607193
v -0.100507 2.778673 -1.392177
v 0.091744 2.605274 -1.386579
v -0.005241 2.800609 -1.393349
v -0.006765 2.590261 -1.384760
v 0.091760 2.778128 -1.391961
v -0.135691 2.706594 -1.390124
v -0.100529 2.605715 -1.386398
v 0.120396 2.706250 -1.390390
v -0.116002 2.782121 -1.478748
v 0.096883 2.604932 -1.471883
v -0.010082 2.808700 -1.478830
v -0.011146 2.585326 -1.468918
v 0.094258 2.783987 -1.479247
v -0.154329 2.706146 -1.478367
v -0.115770 2.601818 -1.471194
v 0.132450 2.706197 -1.478185
v -0.132275 2.778345 -1.638644
v 0.120658 2.611897 -1.624893
v -0.010919 2.799862 -1.637132
v -0.010573 2.586791 -1.634651
v 0.111478 2.776673 -1.639762
v -0.174806 2.707315 -1.633106
v -0.132063 2.602399 -1.630556
v 0.149328 2.706525 -1.636193
v -0.111719 2.769898 -1.881933
v 0.085293 2.616165 -1.855686
v -0.009210 2.779657 -1.872849
v -0.008092 2.597550 -1.849908
v 0.089794 2.769765 -1.881899
v -0.147452 2.702289 -1.908566
v -0.109508 2.614082 -1.853680
v 0.125617 2.702872 -1.908524
v -0.114036 2.807421 -0.928380
v -0.105085 2.802357 -1.087425
v -0.004021 2.824936 -1.087462
v -0.004178 2.831248 -0.928805
v -0.154950 2.688040 -0.932829
v -0.147918 2.695666 -1.091301
v 0.097790 2.805324 -0.929860
v 0.085602 2.800041 -1.085101
v 0.127240 2.697316 -1.089948
v 0.140228 2.690097 -0.929559
v 0.100600 2.586547 -0.932509
v 0.089155 2.596823 -1.090318
v -0.005028 2.568897 -1.091681
v -0.004371 2.559547 -0.931133
v -0.113693 2.586443 -0.931077
v -0.104883 2.596827 -1.092286
v 0.090853 2.804139 -1.003236
v -0.004226 2.828945 -1.003824
v -0.108080 2.592812 -1.007865
v -0.003915 2.561530 -1.009052
v -0.152082 2.693803 -1.006851
v 0.094702 2.590666 -1.006974
v 0.132585 2.691849 -1.004719
v -0.108847 2.805915 -1.004560
v 0.175998 2.610291 -1.497464
v 0.194122 2.688532 -1.504221
v 0.179496 2.615267 -1.643343
v 0.191988 2.690588 -1.648039
v 0.247283 2.592005 -1.523473
v 0.250655 2.668754 -1.528934
v 0.244930 2.601082 -1.670870
v 0.248674 2.671750 -1.671527
v -0.244695 2.424712 -0.367501
v 0.214391 2.424899 -0.365755
v -0.300928 2.431137 0.000615
v -0.282390 2.424935 -0.177543
v -0.173676 2.429733 -0.419284
v -0.000985 2.430813 -0.424719
v 0.149935 2.432096 -0.419923
v 0.273308 2.425197 -0.177037
v 0.296947 2.432009 0.000615
v -0.167473 2.125241 -0.456437
v -0.276295 1.973084 -0.183257
v -0.180345 1.981424 -0.416719
v 0.246443 1.970118 -0.179012
v 0.149735 1.979626 -0.422713
v 0.270650 1.973729 -0.171718
v 0.290683 1.962949 0.000615
v -0.273549 1.976375 -0.394293
v -0.006374 1.986362 -0.498508
v -0.321659 1.971454 0.000615
v 0.231162 1.980560 -0.389636
v -0.300866 1.969193 -0.176585
v -0.179054 1.980849 -0.460710
v 0.153628 1.986232 -0.450139
v 0.213936 1.227381 -0.375186
v 0.213936 1.227381 -0.169471
v 0.005149 1.227381 -0.066614
v -0.177489 1.227381 -0.169471
v -0.177489 1.227381 -0.375186
v 0.005149 1.227381 -0.478044
v 0.213936 1.227381 -0.375186
v 0.213936 1.227381 -0.169471
v 0.005149 1.227381 -0.066614
v -0.163909 1.232089 -0.166532
v -0.177489 1.227381 -0.375186
v 0.007770 1.141349 -0.450363
v 0.188464 1.142493 -0.367065
v 0.188464 1.141256 -0.184242
v 0.007770 1.141349 -0.094294
v -0.150292 1.141349 -0.183311
v -0.150292 1.141443 -0.365669
v 0.005359 0.948117 -0.427609
v 0.181154 0.948053 -0.358009
v 0.185834 0.948790 -0.193747
v 0.005708 0.948171 -0.103855
v -0.164381 1.015842 -0.190891
v -0.164288 1.015139 -0.359118
v -0.141875 1.479286 -0.363565
v -0.141522 1.478950 -0.180435
v -0.003177 1.410344 -0.089658
v 0.192555 1.414662 -0.180706
v 0.193027 1.413960 -0.362826
v -0.003442 1.409910 -0.453872
v 0.188817 1.477293 -0.363567
v 0.183604 1.363109 -0.362151
v 0.186913 1.477890 -0.180423
v 0.182557 1.363775 -0.181054
v -0.000688 1.474860 -0.088851
v -0.001648 1.358455 -0.090533
v -0.143278 1.355334 -0.181013
v -0.144161 1.355581 -0.362102
v -0.001637 1.358063 -0.452704
v 0.000206 1.473667 -0.455104
v 0.005457 0.947396 -0.463044
v 0.214454 0.948453 -0.388034
v 0.214454 0.949025 -0.144709
v 0.005457 0.947396 -0.063893
v -0.187874 1.021278 -0.157069
v -0.187874 1.021278 -0.396962
v 0.006928 0.669677 -0.463044
v 0.412922 0.884190 -0.398397
v 0.412926 0.884187 -0.146015
v 0.006928 0.669677 -0.063893
v -0.193500 0.668120 -0.147283
v -0.193500 0.668405 -0.397723
v 0.413306 0.815287 -0.464521
v 0.514019 0.821036 -0.398397
v 0.514019 0.821036 -0.146015
v 0.413306 0.820988 -0.062452
v 0.413417 0.664661 -0.464521
v 0.514019 0.667100 -0.398397
v 0.514019 0.667100 -0.146015
v 0.413681 0.665605 -0.062452
v 0.156847 0.668109 -0.063893
v 0.234337 0.908838 -0.391975
v 0.156847 0.668109 -0.463044
v 0.234339 0.910361 -0.146553
v 0.155293 0.819036 -0.463044
v 0.155293 0.819036 -0.063893
v 0.325598 0.666502 -0.462085
v 0.325999 0.878054 -0.146314
v 0.324971 0.815849 -0.462085
v 0.324971 0.821550 -0.065017
v 0.325334 0.667710 -0.065017
v 0.325996 0.877207 -0.394824
v -0.194645 0.710703 -0.397607
v 0.006664 0.713873 -0.463044
v 0.006664 0.713873 -0.063893
v -0.194645 0.710462 -0.148777
v 0.413300 0.708902 -0.464521
v 0.413652 0.709406 -0.062452
v 0.513755 0.708846 -0.398397
v 0.513755 0.708846 -0.146015
v 0.156117 0.709897 -0.063893
v 0.156117 0.709897 -0.463044
v 0.325525 0.708715 -0.065017
v 0.325965 0.708740 -0.462085
v 0.070727 1.070659 -0.442162
v 0.194893 1.067391 -0.376506
v 0.199574 1.065121 -0.172118
v 0.078355 1.066619 -0.090424
v 0.070834 1.069875 -0.480659
v 0.240434 1.064577 -0.400986
v 0.240434 1.065198 -0.136629
v 0.070834 1.069875 -0.047007
v -0.012526 2.692646 -1.918212
v -0.134297 2.705257 -1.337933
v -0.098818 2.781571 -1.339357
v -0.005843 2.802668 -1.340423
v 0.089092 2.780672 -1.339132
v -0.098791 2.605990 -1.334893
v 0.118465 2.705351 -1.338299
v 0.089086 2.605660 -1.335090
v -0.007189 2.588552 -1.333412
v -0.125867 2.808070 -0.735435
v -0.005034 2.831425 -0.731966
v -0.169389 2.680686 -0.737435
v 0.105286 2.807827 -0.732135
v -0.125617 2.588602 -0.737252
v 0.147809 2.682684 -0.730848
v 0.104294 2.590773 -0.732391
v -0.004282 2.555837 -0.733133
v 0.006350 1.227381 0.450918
v -0.003954 1.705523 0.514633
v 0.186358 1.227381 0.362239
v 0.216091 1.699609 0.392804
v 0.186358 1.227381 0.184880
v 0.208551 1.653644 0.170224
v 0.006350 1.227381 0.096201
v -0.004228 1.635984 0.053619
v -0.151111 1.227381 0.184880
v -0.206452 1.653226 0.169222
v -0.151111 1.227381 0.362239
v -0.206077 1.699408 0.391995
v -0.002627 1.866899 0.507263
v 0.210901 1.838972 0.390833
v 0.213643 1.767637 0.166300
v -0.004375 1.711678 0.048656
v -0.211510 1.766488 0.172117
v -0.209116 1.832458 0.394366
v -0.006767 1.978567 0.483261
v 0.213844 1.978474 0.374344
v 0.225597 1.808719 0.131863
v -0.004302 1.738453 0.040290
v -0.249829 1.824744 0.114846
v -0.253257 1.975894 0.372796
v -0.004836 1.628494 0.460813
v 0.188036 1.613613 0.366541
v 0.185176 1.584218 0.178012
v -0.004875 1.569007 0.083810
v -0.175061 1.583830 0.178021
v -0.175007 1.613584 0.366522
v -0.006519 1.643793 0.511381
v 0.233071 1.624255 0.390403
v 0.228632 1.588928 0.172396
v -0.006585 1.573557 0.062042
v -0.222553 1.587956 0.167113
v -0.222414 1.624180 0.390355
v -0.000133 2.124994 0.459206
v 0.217660 2.131619 0.382722
v -0.247515 2.130785 0.386569
v -0.255316 2.794054 0.359365
v 0.181139 2.761125 0.359193
v -0.276394 2.131804 0.182906
v -0.285618 2.804789 0.170479
v -0.258960 2.679816 0.357918
v -0.263884 2.553781 0.359154
v -0.241575 2.279974 0.381535
v 0.146046 2.126473 0.441648
v -0.000133 2.124994 0.459206
v -0.167473 2.125241 0.457668
v -0.194128 2.834630 0.416538
v -0.011886 2.863473 0.414207
v 0.142792 2.820960 0.415261
v 0.188927 2.678692 0.358371
v 0.205514 2.554238 0.359054
v 0.214787 2.280174 0.369684
v 0.260003 2.129687 0.180872
v 0.220441 2.771800 0.171674
v -0.275739 2.279088 0.182210
v -0.305109 2.560130 0.171616
v -0.301839 2.679730 0.171128
v -0.169760 2.280041 0.431964
v -0.177620 2.550389 0.430656
v -0.198543 2.684036 0.422359
v -0.001420 2.279225 0.428198
v -0.005046 2.494111 0.435496
v 0.145099 2.283508 0.429590
v 0.155570 2.551985 0.429403
v 0.158963 2.684417 0.422312
v 0.271126 2.279312 0.182695
v 0.257817 2.559978 0.171892
v 0.234635 2.679003 0.170796
v 0.168264 2.829392 0.166192
v -0.013714 2.899157 0.165747
v -0.191397 2.862346 0.165992
v -0.192566 2.682690 0.481122
v -0.153502 2.576605 0.478536
v 0.149951 2.682906 0.480851
v -0.151842 2.819081 0.478954
v 0.138021 2.573196 0.480403
v -0.005510 2.854566 0.480311
v -0.000055 2.530003 0.478161
v 0.127314 2.818816 0.478946
v -0.137034 2.816532 0.608818
v 0.102496 2.580257 0.610412
v -0.008408 2.842813 0.607399
v -0.006531 2.538821 0.609791
v 0.105618 2.816218 0.609459
v -0.179651 2.681818 0.605770
v -0.136889 2.577791 0.607969
v 0.149327 2.682387 0.608424
v -0.100507 2.778673 1.393408
v 0.091744 2.605274 1.387810
v -0.005241 2.800609 1.394580
v -0.006765 2.590261 1.385991
v 0.091760 2.778128 1.393192
v -0.135691 2.706594 1.391355
v -0.100529 2.605715 1.387629
v 0.120396 2.706250 1.391621
v -0.116002 2.782121 1.479979
v 0.096883 2.604932 1.473113
v -0.010082 2.808700 1.480060
v -0.011146 2.585326 1.470149
v 0.094258 2.783987 1.480477
v -0.154329 2.706146 1.479598
v -0.115770 2.601818 1.472424
v 0.132450 2.706197 1.479416
v -0.132275 2.778345 1.639874
v 0.120658 2.611897 1.626124
v -0.010919 2.799862 1.638363
v -0.010573 2.586791 1.635882
v 0.111478 2.776673 1.640993
v -0.174806 2.707315 1.634337
v -0.132063 2.602399 1.631787
v 0.149328 2.706525 1.637424
v -0.111719 2.769898 1.883163
v 0.085293 2.616165 1.856916
v -0.009210 2.779657 1.874080
v -0.008092 2.597550 1.851139
v 0.089794 2.769765 1.883129
v -0.147452 2.702289 1.909797
v -0.109508 2.614082 1.854911
v 0.125617 2.702872 1.909755
v -0.114036 2.807421 0.929611
v -0.105085 2.802357 1.088656
v -0.004021 2.824936 1.088693
v -0.004178 2.831248 0.930036
v -0.154950 2.688040 0.934060
v -0.147918 2.695666 1.092532
v 0.097790 2.805324 0.931091
v 0.085602 2.800041 1.086332
v 0.127240 2.697316 1.091178
v 0.140228 2.690097 0.930790
v 0.100600 2.586547 0.933739
v 0.089155 2.596823 1.091548
v -0.005028 2.568897 1.092912
v -0.004371 2.559547 0.932364
v -0.113693 2.586443 0.932307
v -0.104883 2.596827 1.093516
v 0.090853 2.804139 1.004467
v -0.004226 2.828945 1.005054
v -0.108080 2.592812 1.009096
v -0.003915 2.561530 1.010283
v -0.152082 2.693803 1.008081
v 0.094702 2.590666 1.008205
v 0.132585 2.691849 1.005950
v -0.108847 2.805915 1.005791
v 0.175998 2.610291 1.498695
v 0.194122 2.688532 1.505451
v 0.179496 2.615267 1.644574
v 0.191988 2.690588 1.649270
v 0.247283 2.592005 1.524704
v 0.250655 2.668754 1.530165
v 0.244930 2.601082 1.672101
v 0.248674 2.671750 1.672758
v -0.244695 2.424712 0.368732
v 0.214391 2.424899 0.366986
v -0.282390 2.424935 0.178773
v -0.173676 2.429733 0.420515
v -0.000985 2.430813 0.425949
v 0.149935 2.432096 0.421154
v 0.273308 2.425197 0.178268
v -0.167473 2.125241 0.457668
v -0.276295 1.973084 0.184488
v -0.180345 1.981424 0.417950
v 0.246443 1.970118 0.180243
v 0.149735 1.979626 0.423944
v 0.270650 1.973729 0.172949
v -0.273549 1.976375 0.395524
v -0.006374 1.986362 0.499738
v 0.231162 1.980560 0.390867
v -0.300866 1.969193 0.177816
v -0.179054 1.980849 0.461941
v 0.153628 1.986232 0.451370
v 0.213936 1.227381 0.376417
v 0.213936 1.227381 0.170702
v 0.005149 1.227381 0.067844
v -0.177489 1.227381 0.170702
v -0.177489 1.227381 0.376417
v 0.005149 1.227381 0.479275
v 0.213936 1.227381 0.376417
v 0.213936 1.227381 0.170702
v 0.005149 1.227381 0.067844
v -0.163909 1.232089 0.167763
v -0.177489 1.227381 0.376417
v 0.007770 1.141349 0.451594
v 0.188464 1.142493 0.368295
v 0.188464 1.141256 0.185473
v 0.007770 1.141349 0.095525
v -0.150292 1.141349 0.184542
v -0.150292 1.141443 0.366899
v 0.005359 0.948117 0.428840
v 0.181154 0.948053 0.359240
v 0.185834 0.948790 0.194977
v 0.005708 0.948171 0.105086
v -0.164381 1.015842 0.192122
v -0.164288 1.015139 0.360349
v -0.141875 1.479286 0.364796
v -0.141522 1.478950 0.181665
v -0.003177 1.410344 0.090889
v 0.192555 1.414662 0.181936
v 0.193027 1.413960 0.364056
v -0.003442 1.409910 0.455103
v 0.188817 1.477293 0.364798
v 0.183604 1.363109 0.363382
v 0.186913 1.477890 0.181654
v 0.182557 1.363775 0.182285
v -0.000688 1.474860 0.090082
v -0.001648 1.358455 0.091764
v -0.143278 1.355334 0.182244
v -0.144161 1.355581 0.363333
v -0.001637 1.358063 0.453935
v 0.000206 1.473667 0.456335
v 0.005457 0.947396 0.464275
v 0.214454 0.948453 0.389265
v 0.214454 0.949025 0.145940
v 0.005457 0.947396 0.065124
v -0.187874 1.021278 0.158299
v -0.187874 1.021278 0.398193
v 0.006928 0.669677 0.464275
v 0.412922 0.884190 0.399628
v 0.412926 0.884187 0.147246
v 0.006928 0.669677 0.065124
v -0.193500 0.668120 0.148514
v -0.193500 0.668405 0.398953
v 0.413306 0.815287 0.465751
v 0.514019 0.821036 0.399628
v 0.514019 0.821036 0.147246
v 0.413306 0.820988 0.063683
v 0.413417 0.664661 0.465751
v 0.514019 0.667100 0.399628
v 0.514019 0.667100 0.147246
v 0.413681 0.665605 0.063683
v 0.156847 0.668109 0.065124
v 0.234337 0.908838 0.393206
v 0.156847 0.668109 0.464275
v 0.234339 0.910361 0.147784
v 0.155293 0.819036 0.464275
v 0.155293 0.819036 0.065124
v 0.325598 0.666502 0.463315
v 0.325999 0.878054 0.147545
v 0.324971 0.815849 0.463315
v 0.324971 0.821550 0.066248
v 0.325334 0.667710 0.066248
v 0.325996 0.877207 0.396054
v -0.194645 0.710703 0.398837
v 0.006664 0.713873 0.464275
v 0.006664 0.713873 0.065124
v -0.194645 0.710462 0.150008
v 0.413300 0.708902 0.465751
v 0.413652 0.709406 0.063683
v 0.513755 0.708846 0.399628
v 0.513755 0.708846 0.147246
v 0.156117 0.709897 0.065124
v 0.156117 0.709897 0.464275
v 0.325525 0.708715 0.066248
v 0.325965 0.708740 0.463315
v 0.070727 1.070659 0.443392
v 0.194893 1.067391 0.377737
v 0.199574 1.065121 0.173349
v 0.078355 1.066619 0.091654
v 0.070834 1.069875 0.481890
v 0.240434 1.064577 0.402217
v 0.240434 1.065198 0.137859
v 0.070834 1.069875 0.048238
v -0.012526 2.692646 1.919443
v -0.134297 2.705257 1.339164
v -0.098818 2.781571 1.340588
v -0.005843 2.802668 1.341654
v 0.089092 2.780672 1.340362
v -0.098791 2.605990 1.336124
v 0.118465 2.705351 1.339529
v 0.089086 2.605660 1.336320
v -0.007189 2.588552 1.334643
v -0.125867 2.808070 0.736666
v -0.005034 2.831425 0.733197
v -0.169389 2.680686 0.738666
v 0.105286 2.807827 0.733366
v -0.125617 2.588602 0.738482
v 0.147809 2.682684 0.732078
v 0.104294 2.590773 0.733621
v -0.004282 2.555837 0.734363
vn 0.4676 0.0127 -0.8838
vn 0.9641 0.2552 0.0733
vn 0.4526 -0.0112 0.8917
vn -0.4652 0.0235 0.8849
vn -0.9733 0.2258 0.0406
vn -0.5050 0.0389 -0.8622
vn 0.9999 0.0001 0.0108
vn -0.9993 -0.0332 -0.0146
vn 0.4833 0.0334 -0.8748
vn 0.4841 -0.0535 0.8734
vn -0.5002 0.0118 -0.8658
vn -0.5072 -0.0234 0.8615
vn 0.4770 -0.5278 0.7028
vn 0.6109 0.0802 -0.7877
vn -0.4459 0.0277 -0.8947
vn -0.4638 -0.6626 0.5881
vn 0.9959 -0.0641 -0.0640
vn -0.9344 -0.3253 -0.1451
vn 0.3113 -0.9073 0.2826
vn 0.9681 -0.2125 -0.1331
vn 0.0297 0.9994 0.0197
vn -0.0149 0.9999 0.0082
vn -0.3292 -0.9011 0.2822
vn -0.9669 -0.2410 -0.0841
vn -0.5411 0.0147 -0.8408
vn -0.5128 -0.0157 -0.8583
vn -0.9983 0.0576 0.0025
vn -0.5135 -0.0238 0.8577
vn 0.4376 -0.0105 -0.8991
vn 0.4415 -0.0041 0.8972
vn -0.0732 -0.9559 -0.2844
vn -0.1305 -0.9790 -0.1569
vn -0.1184 -0.9894 0.0844
vn 0.1330 -0.9826 0.1296
vn 0.1381 -0.9785 -0.1533
vn 0.0694 -0.9539 -0.2920
vn -0.9789 -0.0771 0.1892
vn 0.0756 -0.9845 -0.1582
vn 0.6146 -0.1119 0.7809
vn -0.9801 -0.1694 -0.1038
vn -0.9933 0.0444 -0.1068
vn -0.9855 0.1489 -0.0814
vn -0.9779 0.0805 -0.1928
vn -0.9750 0.0341 -0.2196
vn -0.9695 -0.1411 -0.2002
vn -0.9877 0.0250 -0.1545
vn -0.9952 0.0038 -0.0974
vn -0.0469 -0.1083 -0.9930
vn 0.0532 -0.0970 -0.9939
vn -0.6206 0.0863 -0.7794
vn -0.6155 -0.0588 -0.7860
vn -0.6796 -0.0149 -0.7334
vn -0.7128 0.0333 -0.7005
vn 0.8884 0.1099 -0.4457
vn 0.8585 0.0595 -0.5093
vn 0.7365 0.0087 -0.6763
vn 0.0519 0.1372 -0.9892
vn 0.0071 0.1806 -0.9835
vn 0.9836 0.1183 -0.1363
vn 0.9729 0.1802 -0.1446
vn 0.9533 0.1033 -0.2837
vn 0.9547 0.1578 -0.2522
vn 0.9676 0.1192 -0.2228
vn 0.9770 0.1514 -0.1502
vn 0.9894 -0.0676 -0.1286
vn 0.9691 -0.0176 -0.2461
vn -0.9791 0.1576 -0.1283
vn -0.0000 1.0000 -0.0000
vn 0.3736 0.9250 -0.0701
vn -0.2378 0.9703 -0.0448
vn 0.8129 0.5640 -0.1453
vn 0.3144 0.9441 -0.0987
vn -0.1772 0.9764 -0.1237
vn -0.5565 0.8239 -0.1070
vn -0.4858 0.8732 -0.0381
vn 0.6994 0.7083 -0.0954
vn -0.9232 -0.2236 -0.3127
vn -0.9104 0.1539 -0.3840
vn 0.9681 -0.0546 -0.2445
vn -0.1853 0.9501 -0.2509
vn 0.2785 -0.8030 -0.5269
vn 0.2614 0.9600 -0.1001
vn 0.9694 0.1446 -0.1986
vn -0.2480 -0.7598 -0.6009
vn -0.9263 -0.3609 -0.1081
vn -0.9504 0.2918 -0.1074
vn 0.9543 -0.2637 -0.1406
vn -0.2187 0.9737 -0.0643
vn 0.3210 -0.9408 -0.1086
vn 0.2439 0.9667 -0.0771
vn 0.9674 0.2382 -0.0865
vn -0.2886 -0.9563 -0.0479
vn 0.2261 0.9735 -0.0354
vn -0.9441 0.3246 -0.0583
vn 0.9602 -0.2762 0.0412
vn -0.1745 -0.9846 -0.0115
vn 0.9201 -0.3907 -0.0291
vn 0.9424 0.3329 -0.0317
vn -0.2502 -0.9681 -0.0114
vn 0.2271 0.9738 -0.0104
vn -0.9133 -0.4016 -0.0672
vn -0.9429 -0.3321 0.0251
vn 0.2786 -0.9604 -0.0014
vn 0.1626 -0.9867 -0.0078
vn 0.9296 0.3669 0.0350
vn -0.2231 0.9738 -0.0434
vn -0.9025 0.4302 0.0201
vn -0.8800 0.4399 0.1794
vn 0.9089 0.4074 0.0891
vn 0.1659 -0.9856 0.0314
vn 0.9502 -0.2969 0.0951
vn -0.9272 -0.3230 0.1896
vn -0.1599 -0.9846 0.0700
vn 0.2272 0.9709 0.0753
vn -0.2329 0.9681 0.0925
vn -0.2883 -0.0203 -0.9573
vn -0.9285 -0.3558 0.1067
vn -0.1405 -0.9901 0.0006
vn 0.2060 0.9778 -0.0389
vn -0.2068 0.9780 -0.0276
vn -0.8703 0.4827 0.0977
vn 0.8851 0.4576 0.0847
vn 0.1840 -0.9829 -0.0119
vn 0.8713 0.4830 -0.0868
vn 0.1917 -0.9803 -0.0472
vn 0.9159 -0.3867 -0.1080
vn -0.9079 -0.4080 -0.0963
vn -0.1425 -0.9880 -0.0587
vn 0.1443 0.9876 -0.0621
vn -0.1350 0.9887 -0.0654
vn -0.8610 0.5001 -0.0925
vn 0.2491 0.9679 -0.0345
vn -0.2628 -0.9629 -0.0623
vn -0.9184 -0.3868 -0.0828
vn 0.9315 -0.3502 -0.0980
vn 0.2657 -0.9629 -0.0480
vn 0.9339 0.3460 -0.0903
vn -0.9387 0.3424 -0.0407
vn -0.2133 0.9765 -0.0319
vn -0.2003 0.9797 -0.0086
vn -0.2161 0.9751 -0.0495
vn -0.9291 0.3668 -0.0477
vn 0.9303 0.3624 -0.0560
vn 0.2841 -0.9546 -0.0892
vn 0.9328 -0.3503 -0.0844
vn -0.9157 -0.3983 -0.0538
vn -0.2782 -0.9580 -0.0688
vn 0.2603 0.9640 -0.0552
vn 0.3274 0.9448 0.0120
vn 0.0519 -0.9980 -0.0351
vn 0.3414 -0.0338 0.9393
vn 0.3140 0.9492 0.0228
vn 0.9987 -0.0489 -0.0170
vn 0.3742 0.0212 0.9271
vn -0.2483 -0.9675 -0.0473
vn -0.3834 0.0088 -0.9235
vn 0.9560 0.0013 -0.2933
vn 0.9917 -0.0156 -0.1276
vn 0.6486 0.0191 -0.7609
vn -0.5824 0.0529 -0.8112
vn 0.0108 0.0354 -0.9993
vn -0.0049 0.0454 -0.9990
vn -0.9831 -0.0229 -0.1815
vn -0.9940 -0.0464 -0.0991
vn 0.0957 -0.9953 0.0148
vn 0.6415 0.0707 -0.7639
vn 0.0279 0.9925 0.1193
vn 0.4324 0.0795 -0.8982
vn -0.1799 0.9802 0.0834
vn 0.1051 -0.9479 -0.3007
vn 0.2065 0.1745 -0.9628
vn -0.9911 -0.0476 0.1246
vn 0.1159 -0.1624 0.9799
vn -0.9820 0.1563 -0.1063
vn 0.0809 -0.9966 -0.0145
vn 0.6226 0.0927 -0.7771
vn -0.1230 0.9907 0.0580
vn -0.0509 0.9986 0.0131
vn 0.3276 -0.9448 -0.0000
vn 0.3700 -0.6570 -0.6569
vn 0.4193 -0.2395 -0.8757
vn -0.4653 -0.2635 -0.8451
vn -0.4864 -0.2549 0.8357
vn 0.9584 -0.2855 -0.0009
vn -0.9734 -0.2264 0.0365
vn 0.4272 -0.2695 0.8631
vn -0.4328 -0.0603 -0.8995
vn -0.4763 -0.0231 0.8790
vn 0.9996 -0.0257 -0.0135
vn -0.9938 0.1108 -0.0005
vn 0.4456 -0.0496 0.8939
vn 0.3930 -0.0850 -0.9156
vn 0.9999 0.0103 0.0136
vn 0.4405 0.0037 -0.8978
vn 0.4424 -0.0312 0.8963
vn -0.5141 -0.1396 0.8463
vn -0.9631 -0.2683 -0.0209
vn -0.5077 -0.0854 -0.8573
vn 0.4300 -0.0481 -0.9015
vn 0.9823 -0.1875 0.0048
vn 0.4317 -0.0463 0.9008
vn -0.5445 -0.0062 0.8388
vn -0.9999 0.0163 0.0034
vn 0.9997 0.0241 0.0029
vn -0.5449 0.0105 0.8384
vn 0.4300 0.0029 0.9028
vn 0.9970 0.0776 0.0062
vn 0.4286 -0.0121 -0.9034
vn -0.5432 -0.0111 -0.8395
vn 0.5356 0.0377 0.8436
vn 0.5377 0.0300 -0.8426
vn 0.2389 0.9710 -0.0016
vn -0.8828 0.4695 -0.0120
vn 0.9759 -0.2183 0.0005
vn 0.3479 0.9366 -0.0423
vn 0.3407 0.9388 0.0503
vn -0.9930 0.1154 0.0257
vn -0.3095 -0.0038 -0.9509
vn -0.3864 0.0096 0.9223
vn 0.3976 0.6365 -0.6609
vn -0.9996 -0.0270 -0.0000
vn -0.0753 0.9972 -0.0017
vn 0.4464 0.7147 0.5385
vn 1.0000 0.0063 -0.0000
vn 0.6404 0.0022 0.7681
vn 0.5495 0.0024 -0.8355
vn -0.0277 -0.0001 -0.9996
vn -0.0000 -0.0000 1.0000
vn -0.0353 0.8088 0.5871
vn -0.0501 0.7147 -0.6977
vn -0.0291 0.0001 0.9996
vn 0.5298 0.8481 -0.0000
vn 0.3313 0.3552 -0.8741
vn 0.3679 0.3644 0.8555
vn -0.0000 -0.0000 -1.0000
vn 0.8915 0.4530 -0.0019
vn 0.0066 -0.0000 1.0000
vn 0.0810 0.6492 -0.7563
vn 0.0843 0.7192 0.6897
vn 0.0057 -0.0000 -1.0000
vn 0.3293 0.9442 -0.0045
vn -0.0291 -0.0001 0.9996
vn -0.0278 0.0001 -0.9996
vn 0.5493 -0.0007 -0.8356
vn 0.6397 0.0002 0.7686
vn 1.0000 -0.0024 -0.0000
vn -0.9998 0.0218 -0.0000
vn -0.4085 0.0181 0.9126
vn -0.3155 0.0043 -0.9489
vn -0.0029 0.9992 -0.0410
vn 0.0422 0.9988 -0.0265
vn 0.0313 0.9995 0.0032
vn -0.4717 0.2975 -0.8300
vn -0.3957 0.2501 0.8837
vn 0.3964 -0.2443 0.8850
vn 0.3634 -0.2540 -0.8964
vn -0.8586 0.5038 -0.0950
vn -0.0224 -0.9997 0.0027
vn 0.0197 -0.9998 0.0014
vn -0.0059 -1.0000 0.0015
vn -0.0105 -0.9999 -0.0000
vn 0.0071 -1.0000 -0.0004
vn -0.0002 -1.0000 0.0100
vn -0.0347 -0.4610 0.8867
vn -0.0989 0.5510 0.8286
vn 0.0347 -0.4630 0.8857
vn 0.0651 0.5841 0.8090
vn 0.0385 -0.3838 0.9226
vn -0.0654 0.5801 0.8119
vn -0.0361 -0.3862 0.9217
vn 0.0987 0.5560 0.8253
vn -0.9182 0.3935 -0.0455
vn -0.2193 0.9720 -0.0848
vn 0.9286 0.3708 -0.0181
vn 0.2296 -0.9716 -0.0580
vn -0.9282 -0.3685 -0.0515
vn -0.2296 -0.9715 -0.0597
vn 0.9471 -0.3196 -0.0279
vn 0.2469 0.9658 -0.0785
vn -0.1928 0.9773 -0.0875
vn 0.3296 -0.9389 -0.0989
vn -0.9116 -0.4013 -0.0893
vn 0.2170 0.9733 -0.0745
vn -0.2712 -0.9552 -0.1186
vn 0.9487 0.3157 -0.0174
vn 0.9065 -0.4218 -0.0174
vn -0.9463 0.3107 -0.0892
vn 0.4676 0.0127 0.8838
vn 0.9641 0.2552 -0.0733
vn 0.4526 -0.0112 -0.8917
vn -0.4652 0.0235 -0.8849
vn -0.9733 0.2258 -0.0406
vn -0.5050 0.0389 0.8622
vn 0.9999 0.0001 -0.0108
vn -0.9993 -0.0332 0.0146
vn 0.4833 0.0334 0.8748
vn 0.4841 -0.0535 -0.8734
vn -0.5002 0.0118 0.8658
vn -0.5072 -0.0234 -0.8615
vn 0.4770 -0.5278 -0.7028
vn 0.6109 0.0802 0.7877
vn -0.4459 0.0277 0.8947
vn -0.4638 -0.6626 -0.5881
vn 0.9959 -0.0641 0.0640
vn -0.9344 -0.3253 0.1451
vn 0.3113 -0.9073 -0.2826
vn 0.9681 -0.2125 0.1331
vn 0.0297 0.9994 -0.0197
vn -0.0149 0.9999 -0.0082
vn -0.3292 -0.9011 -0.2822
vn -0.9669 -0.2410 0.0841
vn -0.5411 0.0147 0.8408
vn -0.5128 -0.0157 0.8583
vn -0.9983 0.0576 -0.0025
vn -0.5135 -0.0238 -0.8577
vn 0.4376 -0.0105 0.8991
vn 0.4415 -0.0041 -0.8972
vn -0.0732 -0.9559 0.2844
vn -0.1305 -0.9790 0.1569
vn -0.1184 -0.9894 -0.0844
vn 0.1330 -0.9826 -0.1296
vn 0.1381 -0.9785 0.1533
vn 0.0694 -0.9539 0.2920
vn -0.9789 -0.0771 -0.1892
vn 0.0756 -0.9845 0.1582
vn 0.6146 -0.1119 -0.7809
vn -0.9801 -0.1694 0.1038
vn -0.9933 0.0444 0.1068
vn -0.9855 0.1489 0.0814
vn -0.9779 0.0805 0.1928
vn -0.9750 0.0341 0.2196
vn -0.9695 -0.1411 0.2002
vn -0.9877 0.0250 0.1545
vn -0.9952 0.0038 0.0974
vn -0.0469 -0.1083 0.9930
vn 0.0532 -0.0970 0.9939
vn -0.6206 0.0863 0.7794
vn -0.6155 -0.0588 0.7860
vn -0.6796 -0.0149 0.7334
vn -0.7128 0.0333 0.7005
vn 0.8884 0.1099 0.4457
vn 0.8585 0.0595 0.5093
vn 0.7365 0.0087 0.6763
vn 0.0519 0.1372 0.9892
vn 0.0071 0.1806 0.9835
vn 0.9836 0.1183 0.1363
vn 0.9729 0.1802 0.1446
vn 0.9533 0.1033 0.2837
vn 0.9547 0.1578 0.2522
vn 0.9676 0.1192 0.2228
vn 0.9770 0.1514 0.1502
vn 0.9894 -0.0676 0.1286
vn 0.9691 -0.0176 0.2461
vn -0.9791 0.1576 0.1283
vn 0.3736 0.9250 0.0701
vn -0.2378 0.9703 0.0448
vn 0.8129 0.5640 0.1453
vn 0.3144 0.9441 0.0987
vn -0.1772 0.9764 0.1237
vn -0.5565 0.8239 0.1070
vn -0.4858 0.8732 0.0381
vn 0.6994 0.7083 0.0954
vn -0.9232 -0.2236 0.3127
vn -0.9104 0.1539 0.3840
vn 0.9681 -0.0546 0.2445
vn -0.1853 0.9501 0.2509
vn 0.2785 -0.8030 0.5269
vn 0.2614 0.9600 0.1001
vn 0.9694 0.1446 0.1986
vn -0.2480 -0.7598 0.6009
vn -0.9263 -0.3609 0.1081
vn -0.9504 0.2918 0.1074
vn 0.9543 -0.2637 0.1406
vn -0.2187 0.9737 0.0643
vn 0.3210 -0.9408 0.1086
vn 0.2439 0.9667 0.0771
vn 0.9674 0.2382 0.0865
vn -0.2886 -0.9563 0.0479
vn 0.2261 0.9735 0.0354
vn -0.9441 0.3246 0.0583
vn 0.9602 -0.2762 -0.0412
vn -0.1745 -0.9846 0.0115
vn 0.9201 -0.3907 0.0291
vn 0.9424 0.3329 0.0317
vn -0.2502 -0.9681 0.0114
vn 0.2271 0.9738 0.0104
vn -0.9133 -0.4016 0.0672
vn -0.9429 -0.3321 -0.0251
vn 0.2786 -0.9604 0.0014
vn 0.1626 -0.9867 0.0078
vn 0.9296 0.3669 -0.0350
vn -0.2231 0.9738 0.0434
vn -0.9025 0.4302 -0.0201
vn -0.8800 0.4399 -0.1794
vn 0.9089 0.4074 -0.0891
vn 0.1659 -0.9856 -0.0314
vn 0.9502 -0.2969 -0.0951
vn -0.9272 -0.3230 -0.1896
vn -0.1599 -0.9846 -0.0700
vn 0.2272 0.9709 -0.0753
vn -0.2329 0.9681 -0.0925
vn -0.2883 -0.0203 0.9573
vn -0.9285 -0.3558 -0.1067
vn -0.1405 -0.9901 -0.0006
vn 0.2060 0.9778 0.0389
vn -0.2068 0.9780 0.0276
vn -0.8703 0.4827 -0.0977
vn 0.8851 0.4576 -0.0847
vn 0.1840 -0.9829 0.0119
vn 0.8713 0.4830 0.0868
vn 0.1917 -0.9803 0.0472
vn 0.9159 -0.3867 0.1080
vn -0.9079 -0.4080 0.0963
vn -0.1425 -0.9880 0.0587
vn 0.1443 0.9876 0.0621
vn -0.1350 0.9887 0.0654
vn -0.8610 0.5001 0.0925
vn 0.2491 0.9679 0.0345
vn -0.2628 -0.9629 0.0623
vn -0.9184 -0.3868 0.0828
vn 0.9315 -0.3502 0.0980
vn 0.2657 -0.9629 0.0480
vn 0.9339 0.3460 0.0903
vn -0.9387 0.3424 0.0407
vn -0.2133 0.9765 0.0319
vn -0.2003 0.9797 0.0086
vn -0.2161 0.9751 0.0495
vn -0.9291 0.3668 0.0477
vn 0.9303 0.3624 0.0560
vn 0.2841 -0.9546 0.0892
vn 0.9328 -0.3503 0.0844
vn -0.9157 -0.3983 0.0538
vn -0.2782 -0.9580 0.0688
vn 0.2603 0.9640 0.0552
vn 0.3274 0.9448 -0.0120
vn 0.0519 -0.9980 0.0351
vn 0.3414 -0.0338 -0.9393
vn 0.3140 0.9492 -0.0228
vn 0.9987 -0.0489 0.0170
vn 0.3742 0.0212 -0.9271
vn -0.2483 -0.9675 0.0473
vn -0.3834 0.0088 0.9235
vn 0.9560 0.0013 0.2933
vn 0.9917 -0.0156 0.1276
vn 0.6486 0.0191 0.7609
vn -0.5824 0.0529 0.8112
vn 0.0108 0.0354 0.9993
vn -0.0049 0.0454 0.9990
vn -0.9831 -0.0229 0.1815
vn -0.9940 -0.0464 0.0991
vn 0.0957 -0.9953 -0.0148
vn 0.6415 0.0707 0.7639
vn 0.0279 0.9925 -0.1193
vn 0.4324 0.0795 0.8982
vn -0.1799 0.9802 -0.0834
vn 0.1051 -0.9479 0.3007
vn 0.2065 0.1745 0.9628
vn -0.9911 -0.0476 -0.1246
vn 0.1159 -0.1624 -0.9799
vn -0.9820 0.1563 0.1063
vn 0.0809 -0.9966 0.0145
vn 0.6226 0.0927 0.7771
vn -0.1230 0.9907 -0.0580
vn -0.0509 0.9986 -0.0131
vn 0.3700 -0.6570 0.6569
vn 0.4193 -0.2395 0.8757
vn -0.4653 -0.2635 0.8451
vn -0.4864 -0.2549 -0.8357
vn 0.9584 -0.2855 0.0009
vn -0.9734 -0.2264 -0.0365
vn 0.4272 -0.2695 -0.8631
vn -0.4328 -0.0603 0.8995
vn -0.4763 -0.0231 -0.8790
vn 0.9996 -0.0257 0.0135
vn -0.9938 0.1108 0.0005
vn 0.4456 -0.0496 -0.8939
vn 0.3930 -0.0850 0.9156
vn 0.9999 0.0103 -0.0136
vn 0.4405 0.0037 0.8978
vn 0.4424 -0.0312 -0.8963
vn -0.5141 -0.1396 -0.8463
vn -0.9631 -0.2683 0.0209
vn -0.5077 -0.0854 0.8573
vn 0.4300 -0.0481 0.9015
vn 0.9823 -0.1875 -0.0048
vn 0.4317 -0.0463 -0.9008
vn -0.5445 -0.0062 -0.8388
vn -0.9999 0.0163 -0.0034
vn 0.9997 0.0241 -0.0029
vn -0.5449 0.0105 -0.8384
vn 0.4300 0.0029 -0.9028
vn 0.9970 0.0776 -0.0062
vn 0.4286 -0.0121 0.9034
vn -0.5432 -0.0111 0.8395
vn 0.5356 0.0377 -0.8436
vn 0.5377 0.0300 0.8426
vn 0.2389 0.9710 0.0016
vn -0.8828 0.4695 0.0120
vn 0.9759 -0.2183 -0.0005
vn 0.3479 0.9366 0.0423
vn 0.3407 0.9388 -0.0503
vn -0.9930 0.1154 -0.0257
vn -0.3095 -0.0038 0.9509
vn -0.3864 0.0096 -0.9223
vn 0.3976 0.6365 0.6609
vn -0.0753 0.9972 0.0017
vn 0.4464 0.7147 -0.5385
vn 0.6404 0.0022 -0.7681
vn 0.5495 0.0024 0.8355
vn -0.0277 -0.0001 0.9996
vn -0.0353 0.8088 -0.5871
vn -0.0501 0.7147 0.6977
vn -0.0291 0.0001 -0.9996
vn 0.3313 0.3552 0.8741
vn 0.3679 0.3644 -0.8555
vn 0.8915 0.4530 0.0019
vn 0.0066 -0.0000 -1.0000
vn 0.0810 0.6492 0.7563
vn 0.0843 0.7192 -0.6897
vn 0.0057 -0.0000 1.0000
vn 0.3293 0.9442 0.0045
vn -0.0291 -0.0001 -0.9996
vn -0.0278 0.0001 0.9996
vn 0.5493 -0.0007 0.8356
vn 0.6397 0.0002 -0.7686
vn -0.4085 0.0181 -0.9126
vn -0.3155 0.0043 0.9489
vn -0.0029 0.9992 0.0410
vn 0.0422 0.9988 0.0265
vn 0.0313 0.9995 -0.0032
vn -0.4717 0.2975 0.8300
vn -0.3957 0.2501 -0.8837
vn 0.3964 -0.2443 -0.8850
vn 0.3634 -0.2540 0.8964
vn -0.8586 0.5038 0.0950
vn -0.0224 -0.9997 -0.0027
vn 0.0197 -0.9998 -0.0014
vn -0.0059 -1.0000 -0.0015
vn 0.0071 -1.0000 0.0004
vn -0.0002 -1.0000 -0.0100
vn -0.0347 -0.4610 -0.8867
vn -0.0989 0.5510 -0.8286
vn 0.0347 -0.4630 -0.8857
vn 0.0651 0.5841 -0.8090
vn 0.0385 -0.3838 -0.9226
vn -0.0654 0.5801 -0.8119
vn -0.0361 -0.3862 -0.9217
vn 0.0987 0.5560 -0.8253
vn -0.9182 0.3935 0.0455
vn -0.2193 0.9720 0.0848
vn 0.9286 0.3708 0.0181
vn 0.2296 -0.9716 0.0580
vn -0.9282 -0.3685 0.0515
vn -0.2296 -0.9715 0.0597
vn 0.9471 -0.3196 0.0279
vn 0.2469 0.9658 0.0785
vn -0.1928 0.9773 0.0875
vn 0.3296 -0.9389 0.0989
vn -0.9116 -0.4013 0.0893
vn 0.2170 0.9733 0.0745
vn -0.2712 -0.9552 0.1186
vn 0.9487 0.3157 0.0174
vn 0.9065 -0.4218 0.0174
vn -0.9463 0.3107 0.0892
vt 1.000000 0.872655
vt 1.000000 0.921569
vt 0.833333 0.921569
vt 0.833333 0.872655
vt 0.666667 0.921569
vt 0.666667 0.872655
vt 0.500000 0.921569
vt 0.500000 0.872655
vt 0.333333 0.921569
vt 0.333333 0.872655
vt 0.166667 0.921569
vt 0.166667 0.872655
vt -0.000000 0.921569
vt -0.000000 0.872655
vt 0.833333 1.000000
vt 0.666667 1.000000
vt 0.333333 1.000000
vt 0.166667 1.000000
vt 1.000000 1.000000
vt 0.500000 1.000000
vt -0.000000 1.000000
vt 0.666667 1.000000
vt 0.500000 1.000000
vt 0.894584 1.000000
vt 0.166667 1.000000
vt 0.122278 1.000000
vt 0.000000 0.000000
vt 0.400114 0.480137
vt 0.096159 0.576956
vt 0.166667 0.725140
vt -0.000000 0.724612
vt -0.000000 0.688848
vt 1.000000 0.500000
vt 0.166667 0.500000
vt 0.166667 0.652476
vt 1.000000 0.653086
vt 0.333333 0.500000
vt 0.333333 0.651157
vt 0.500000 0.500000
vt 0.500000 0.650454
vt 1.000000 0.724612
vt 1.000000 0.829337
vt 0.833333 0.829337
vt 0.833333 0.725138
vt 0.666667 0.500000
vt 0.666667 0.651178
vt 0.166667 0.829337
vt -0.000000 0.829337
vt 0.333333 0.829337
vt 0.500000 0.829337
vt 0.666667 0.829337
vt 0.833333 1.000000
vt 0.411586 0.493903
vt 0.422226 0.506671
vt 0.166667 1.000000
vt 0.112263 1.000000
vt 0.102975 1.000000
vt 0.489530 0.125083
vt 0.533467 0.125165
vt 0.533461 0.184771
vt 0.489527 0.184420
vt 0.590348 0.125914
vt 0.590314 0.187505
vt 0.620398 0.127032
vt 0.620321 0.190720
vt 0.613146 0.272237
vt 0.587086 0.267795
vt 0.532877 0.261787
vt 0.489235 0.260187
vt 0.375000 0.184070
vt 0.445593 0.184070
vt 0.445593 0.258586
vt 0.375000 0.250000
vt 0.375000 0.125000
vt 0.445593 0.125000
vt 0.480150 0.312500
vt 0.514706 0.312500
vt 0.514570 0.375000
vt 0.480067 0.375000
vt 0.514570 0.437500
vt 0.480067 0.437500
vt 0.445593 0.312500
vt 0.375000 0.312500
vt 0.594465 0.312500
vt 0.625000 0.312500
vt 0.599999 0.439557
vt 0.627131 0.444190
vt 0.641466 0.477055
vt 0.604387 0.490104
vt 0.541762 0.492575
vt 0.485047 0.492325
vt 0.375000 0.375000
vt 0.445564 0.375000
vt 0.445564 0.437500
vt 0.375000 0.437500
vt 0.485680 0.562384
vt 0.544918 0.562105
vt 0.544918 0.625000
vt 0.485679 0.625000
vt 0.614679 0.561436
vt 0.614679 0.625000
vt 0.667550 0.561749
vt 0.667550 0.625000
vt 0.375000 0.562500
vt 0.445690 0.562479
vt 0.445690 0.625000
vt 0.375000 0.625000
vt 0.445603 0.481133
vt 0.375000 0.500000
vt 0.084789 0.508733
vt 0.079138 0.474829
vt 0.687500 0.562500
vt 0.750000 0.562500
vt 0.750000 0.625000
vt 0.687500 0.625000
vt 0.812500 0.565930
vt 0.812500 0.625000
vt 0.680199 0.499354
vt 0.750000 0.500000
vt 0.812500 0.500000
vt 0.867781 0.492150
vt 0.869286 0.558544
vt 0.868721 0.623906
vt 0.250000 0.500000
vt 0.585737 0.312500
vt 0.514570 0.437500
vt 0.591871 0.437500
vt 0.750000 0.500000
vt 0.812500 0.500000
vt 0.514570 0.375000
vt 0.679430 0.500000
vt 0.623728 0.437500
vt 0.625000 0.312500
vt 0.514570 0.437500
vt 0.591908 0.437500
vt 0.679475 0.500000
vt 0.624062 0.437500
vt 0.679475 0.500000
vt 0.679475 0.500000
vt 0.573678 0.312500
vt 0.625000 0.312500
vt 0.561618 0.312500
vt 0.583727 0.437500
vt 0.514571 0.437500
vt 0.514571 0.437500
vt 0.587953 0.437500
vt 0.514706 0.312500
vt 0.579237 0.437500
vt 0.514570 0.437500
vt 0.566566 0.437500
vt 0.514706 0.312500
vt 0.679475 0.500000
vt 0.577186 0.312500
vt 0.580909 0.312500
vt 0.624062 0.437500
vt 0.624062 0.437500
vt 0.812500 0.500000
vt 0.620888 0.312500
vt 0.580536 0.312500
vt 0.587487 0.437500
vt 0.620730 0.437500
vt 0.514570 0.375000
vt 0.530779 0.434801
vt 0.529989 0.312500
vt 0.678840 0.500000
vt 0.750307 0.500000
vt 0.816080 0.500000
vt 0.545224 0.437500
vt 0.580670 0.437500
vt 0.580670 0.437500
vt 0.545224 0.437500
vt 0.574449 0.312500
vt 0.542360 0.312500
vt 0.668119 0.500000
vt 0.822736 0.500000
vt 0.610227 0.312500
vt 0.606882 0.437500
vt 0.574975 0.437500
vt 0.629316 0.437500
vt 0.514570 0.432187
vt 0.569285 0.312500
vt 0.514690 0.319978
vt 0.685471 0.500000
vt 0.801607 0.500000
vt 0.646787 0.345181
vt 0.750000 0.500000
vt 0.514706 0.312500
vt 0.561655 0.312500
vt 0.514570 0.437500
vt 0.566566 0.437500
vt 0.624062 0.437500
vt 0.812500 0.500000
vt 0.750000 0.500000
vt 0.562067 0.312500
vt 0.566566 0.437500
vt 0.587487 0.437500
vt 0.531510 0.437500
vt 0.445593 0.258586
vt 0.833333 0.500000
vt -0.000000 0.500000
vt 0.666667 0.726264
vt 0.833333 0.652478
vt 0.500000 0.726891
vt 0.333333 0.726282
vt 1.000000 0.688848
vt 0.833333 0.688808
vt 0.666667 0.688721
vt 0.500000 0.688673
vt 0.166667 0.500000
vt 0.833333 0.500000
vt 0.666667 0.500000
vt 0.500000 0.500000
vt -0.000000 0.500000
vt 0.500000 0.500000
vt 0.500000 0.500000
vt 1.000000 0.500000
vt -0.000000 0.500000
s 0
f 159/79/123 124/80/123 126/81/123 160/82/123
f 160/82/124 126/81/124 128/83/124 161/84/124
f 161/84/125 128/83/125 130/85/125 162/86/125
f 162/86/126 130/85/126 132/87/126 163/88/126
f 163/88/127 132/87/127 134/89/127 164/90/127
f 164/90/128 134/89/128 124/91/128 159/92/128
f 128/83/129 126/81/129 136/93/129 137/94/129
f 134/89/130 132/87/130 139/95/130 140/96/130
f 126/81/131 124/80/131 135/97/131 136/93/131
f 130/85/132 128/83/132 137/94/132 138/98/132
f 124/91/133 134/89/133 140/96/133 135/99/133
f 132/87/134 130/85/134 138/98/134 139/95/134
f 138/98/135 137/94/135 143/100/135 144/101/135
f 136/93/136 309/102/136 142/93/136
f 135/99/137 140/96/137 146/103/137 307/104/137 141/99/137
f 139/95/138 138/98/138 144/101/138 145/95/138
f 137/94/139 136/93/139 142/93/139 143/100/139
f 140/96/140 139/95/140 145/95/140 146/103/140
f 143/100/141 149/105/141 147/105/141 144/101/141
f 142/93/142 308/106/142 150/105/142 149/105/142 143/100/142
f 148/105/143 150/105/143 308/106/143 142/93/143 309/102/143 141/97/143
f 146/103/144 306/107/144 152/105/144 148/105/144 141/99/144 307/104/144
f 151/105/145 145/95/145 144/101/145 147/105/145
f 146/103/146 145/95/146 151/105/146 152/105/146 306/107/146
f 342/108/147 357/109/147 347/110/147
f 123/111/148 133/112/148 355/113/148 356/114/148
f 131/115/149 354/116/149 355/113/149 133/112/149
f 129/117/150 353/118/150 354/116/150 131/115/150
f 357/119/151 153/120/151 154/121/151 348/122/151
f 127/123/152 351/124/152 353/118/152 129/117/152
f 158/125/153 164/90/153 159/92/153 153/126/153
f 157/127/154 163/88/154 164/90/154 158/125/154
f 156/128/155 162/86/155 163/88/155 157/127/155
f 155/129/156 161/84/156 162/86/156 156/128/156
f 154/121/157 160/82/157 161/84/157 155/129/157
f 153/120/158 159/79/158 160/82/158 154/121/158
f 315/130/159 310/131/159 187/132/159 166/93/159
f 318/105/160 315/105/160 142/105/160 309/105/160
f 169/105/161 312/133/161 317/134/161 305/135/161
f 298/136/162 191/137/162 194/138/162 299/139/162
f 191/137/163 192/140/163 195/141/163 194/138/163
f 192/140/164 173/142/164 174/143/164 195/141/164
f 195/141/165 174/143/165 170/144/165 175/145/165
f 194/138/166 195/141/166 175/145/166 176/146/166
f 299/139/167 194/138/167 176/146/167 296/147/167
f 172/148/168 193/149/168 177/150/168 169/151/168
f 168/152/169 190/153/169 193/149/169 172/148/169
f 300/154/170 197/155/170 200/156/170 301/157/170
f 301/157/171 200/156/171 202/158/171 302/159/171
f 169/151/172 177/150/172 196/160/172 180/161/172
f 296/147/173 176/146/173 197/155/173 300/154/173
f 176/146/174 175/145/174 198/162/174 197/155/174
f 175/145/175 170/144/175 181/163/175 198/162/175
f 203/164/176 183/165/176 171/166/176 184/167/176
f 202/158/177 203/164/177 184/167/177 185/168/177
f 302/159/178 202/158/178 185/168/178 297/169/178
f 179/170/179 199/171/179 201/172/179 178/173/179
f 180/161/180 196/160/180 199/171/180 179/170/180
f 303/174/181 205/175/181 208/176/181 304/177/181
f 205/175/182 206/178/182 209/179/182 208/176/182
f 297/169/183 185/168/183 205/175/183 303/174/183
f 185/168/184 184/167/184 206/178/184 205/175/184
f 184/167/185 171/166/185 188/180/185 206/178/185
f 206/178/186 188/180/186 189/181/186 209/179/186
f 187/182/187 204/183/187 207/184/187 167/185/187
f 186/186/188 204/183/188 187/182/188 166/187/188
f 169/105/189 312/133/189 316/188/189 172/189/189
f 180/161/190 179/170/190 165/170/190 305/161/190
f 210/190/191 211/191/191 214/192/191 213/193/191
f 211/191/192 212/194/192 215/195/192 214/192/192
f 171/166/193 183/196/193 210/190/193 188/180/193
f 183/196/194 182/197/194 211/191/194 210/190/194
f 182/197/195 181/198/195 212/194/195 211/191/195
f 181/198/196 170/199/196 174/200/196 212/194/196
f 212/194/197 174/200/197 173/201/197 215/195/197
f 188/180/198 210/190/198 213/193/198 189/181/198
f 178/105/190 165/202/190 179/170/190
f 197/155/199 198/162/199 216/203/199 217/155/199
f 198/162/200 181/163/200 219/163/200 216/203/200
f 203/164/201 202/158/201 220/204/201 218/205/201
f 181/198/202 182/197/202 221/206/202 219/207/202
f 202/158/203 200/156/203 222/208/203 220/204/203
f 182/197/204 183/196/204 223/209/204 221/206/204
f 183/165/205 203/164/205 218/205/205 223/210/205
f 200/156/206 197/155/206 217/155/206 222/208/206
f 217/155/207 216/203/207 229/203/207 230/155/207
f 216/203/208 219/163/208 224/211/208 229/203/208
f 218/205/209 220/204/209 225/212/209 231/213/209
f 219/207/210 221/206/210 226/206/210 224/207/210
f 220/204/211 222/208/211 227/156/211 225/212/211
f 221/206/212 223/209/212 228/214/212 226/206/212
f 223/210/213 218/205/213 231/213/213 228/215/213
f 222/208/214 217/155/214 230/155/214 227/156/214
f 413/206/215 414/216/215 236/217/215 234/206/215
f 421/218/216 419/219/216 264/219/216 268/220/216
f 416/221/217 417/222/217 233/223/217 239/224/217
f 418/156/218 415/225/218 238/225/218 235/156/218
f 424/226/219 425/204/219 274/227/219 273/228/219
f 422/215/220 424/226/220 273/228/220 270/215/220
f 426/156/221 423/155/221 278/229/221 277/156/221
f 420/206/222 422/214/222 270/230/222 267/206/222
f 423/155/223 421/218/223 268/220/223 278/229/223
f 415/225/224 411/231/224 237/232/224 238/225/224
f 425/204/225 426/156/225 277/156/225 274/212/225
f 417/222/226 418/156/226 235/156/226 233/223/226
f 414/233/227 416/221/227 239/224/227 236/234/227
f 412/235/228 413/206/228 234/206/228 232/207/228
f 411/231/229 412/211/229 232/211/229 237/232/229
f 237/232/230 232/211/230 240/236/230 245/237/230
f 236/234/231 239/224/231 247/238/231 244/239/231
f 233/223/232 235/156/232 243/240/232 241/241/232
f 239/224/233 233/223/233 241/241/233 247/238/233
f 238/225/234 237/232/234 245/237/234 246/242/234
f 235/156/235 238/225/235 246/242/235 243/240/235
f 234/206/236 236/217/236 244/243/236 242/244/236
f 232/207/237 234/206/237 242/244/237 240/245/237
f 249/246/238 255/247/238 291/248/238 290/249/238
f 246/242/239 245/237/239 253/250/239 254/251/239
f 243/240/240 246/242/240 254/251/240 251/156/240
f 242/244/241 244/243/241 252/252/241 250/206/241
f 240/245/242 242/244/242 250/206/242 248/253/242
f 245/237/243 240/236/243 248/254/243 253/250/243
f 244/239/244 247/238/244 255/247/244 252/255/244
f 241/241/245 243/240/245 251/156/245 249/246/245
f 252/255/246 255/247/246 263/256/246 260/257/246
f 249/246/247 251/156/247 259/156/247 257/258/247
f 255/247/248 249/246/248 257/258/248 263/256/248
f 254/251/249 253/250/249 261/259/249 262/260/249
f 251/156/250 254/251/250 262/260/250 259/156/250
f 250/206/251 252/252/251 260/261/251 258/206/251
f 248/253/252 250/206/252 258/206/252 256/262/252
f 253/250/253 248/254/253 256/263/253 261/259/253
f 280/214/254 281/264/254 267/206/254 270/230/254
f 282/265/255 283/156/255 277/156/255 278/229/255
f 284/266/256 282/265/256 278/229/256 268/220/256
f 285/267/257 286/268/257 273/228/257 274/227/257
f 283/156/258 285/267/258 274/212/258 277/156/258
f 286/268/259 280/269/259 270/215/259 273/228/259
f 287/219/260 284/266/260 268/220/260 264/219/260
f 281/264/261 287/270/261 264/270/261 267/206/261
f 419/270/262 420/206/262 267/206/262 264/270/262
f 266/271/263 265/235/263 287/270/263 281/264/263
f 265/219/264 269/272/264 284/266/264 287/219/264
f 272/273/265 271/269/265 280/269/265 286/268/265
f 276/156/266 275/227/266 285/267/266 283/156/266
f 275/227/267 272/273/267 286/268/267 285/267/267
f 269/272/268 279/225/268 282/265/268 284/266/268
f 279/225/269 276/156/269 283/156/269 282/265/269
f 271/214/270 266/206/270 281/264/270 280/214/270
f 291/248/271 289/274/271 293/238/271 295/247/271
f 241/241/272 249/246/272 290/249/272 288/275/272
f 247/238/273 241/241/273 288/275/273 289/274/273
f 255/247/274 247/238/274 289/274/274 291/248/274
f 293/238/275 292/275/275 294/246/275 295/247/275
f 289/274/276 288/275/276 292/275/276 293/238/276
f 288/275/277 290/249/277 294/246/277 292/275/277
f 290/249/278 291/248/278 295/247/278 294/246/278
f 186/186/279 297/169/279 303/174/279 204/183/279
f 204/183/280 303/174/280 304/177/280 207/184/280
f 201/172/281 302/159/281 297/169/281 186/186/281
f 177/276/282 296/147/282 300/154/282 196/160/282
f 199/171/283 301/157/283 302/159/283 201/172/283
f 196/160/284 300/154/284 301/157/284 199/171/284
f 193/149/285 299/139/285 296/147/285 177/276/285
f 190/153/286 298/136/286 299/139/286 193/149/286
f 316/188/287 306/107/287 152/105/287 314/105/287
f 186/186/288 166/187/288 178/105/288 201/172/288
f 317/134/289 307/104/289 141/99/289 313/99/289
f 309/102/290 136/93/290 135/97/290 141/97/290
f 310/131/291 308/106/291 150/105/291 311/105/291
f 318/105/292 309/105/292 141/105/292 313/105/292
f 178/105/293 318/105/293 313/105/293 165/105/293
f 187/132/294 310/131/294 311/105/294 167/185/294
f 305/135/295 317/134/295 313/99/295 165/99/295
f 172/189/296 316/188/296 314/105/296 168/105/296
f 146/103/297 306/107/297 316/188/297 312/133/297
f 178/105/298 166/105/298 315/105/298 318/105/298
f 142/93/299 308/106/299 310/131/299 315/130/299
f 146/103/300 307/104/300 317/134/300 312/133/300
f 127/123/190 129/117/190 321/117/190 320/123/190
f 125/277/190 325/277/190 324/111/190 329/112/190 133/112/190 123/111/190
f 129/117/190 131/115/190 322/115/190 321/117/190
f 125/277/190 127/123/190 320/123/190 319/277/190
f 131/115/190 133/112/190 323/112/190 322/115/190
f 319/277/190 320/123/190 326/123/190 325/277/190
f 322/115/301 323/112/301 329/112/301 328/115/301
f 320/123/190 321/117/190 327/117/190 326/123/190
f 321/117/302 322/115/302 328/115/302 327/117/302
f 324/111/303 325/277/303 331/277/303 330/111/303
f 329/112/304 324/278/304 330/278/304 335/112/304
f 327/117/305 328/115/305 334/115/305 333/117/305
f 325/277/306 326/123/306 332/123/306 331/277/306
f 328/115/307 329/112/307 335/112/307 334/115/307
f 326/123/308 327/117/308 333/117/308 332/123/308
f 335/112/309 330/278/309 336/278/309 341/112/309
f 333/117/310 334/115/310 340/115/310 339/117/310
f 331/277/311 332/123/311 338/123/311 337/277/311
f 334/115/312 335/112/312 341/112/312 340/115/312
f 332/123/313 333/117/313 339/117/313 338/123/313
f 330/111/314 331/277/314 337/277/314 336/111/314
f 348/122/315 154/121/315 155/129/315 350/279/315
f 123/111/316 356/114/316 349/280/316 125/277/316
f 350/279/317 155/129/317 156/128/317 352/281/317
f 352/281/318 156/128/318 157/127/318 343/282/318
f 343/282/319 157/127/319 158/125/319 342/108/319
f 342/108/320 158/125/320 153/126/320 357/109/320
f 347/283/321 346/284/321 349/280/321 356/114/321
f 346/284/322 345/285/322 351/124/322 349/280/322
f 345/285/323 344/286/323 353/118/323 351/124/323
f 344/286/324 343/282/324 354/116/324 353/118/324
f 343/282/325 342/108/325 355/113/325 354/116/325
f 125/277/326 349/280/326 351/124/326 127/123/326
f 352/281/327 343/282/327 344/286/327
f 350/279/328 352/281/328 344/286/328 345/285/328
f 348/122/329 350/279/329 345/285/329 346/284/329
f 357/119/330 348/122/330 346/284/330 347/283/330
f 355/113/331 342/108/331 347/110/331 356/114/331
f 355/113/332 356/114/332 347/283/332
f 354/116/333 344/286/333 353/118/333
f 340/115/334 341/112/334 363/112/334 362/115/334
f 358/278/335 336/278/335 402/278/335 406/278/335
f 360/123/336 359/277/336 407/277/336 408/123/336
f 341/112/337 336/278/337 358/278/337 363/112/337
f 339/117/338 340/115/338 362/115/338 361/117/338
f 337/277/339 338/123/339 404/123/339 403/277/339
f 390/287/340 391/278/340 364/278/340 369/112/340
f 392/117/341 393/115/341 368/115/341 367/117/341
f 370/111/342 365/288/342 371/277/342
f 393/115/343 390/287/343 369/112/343 368/115/343
f 389/288/344 385/289/344 366/123/344 365/288/344
f 366/123/345 373/117/345 372/123/345
f 396/277/346 397/123/346 376/123/346 375/277/346
f 397/123/347 395/290/347 377/117/347 376/123/347
f 394/111/348 396/277/348 375/277/348 374/111/348
f 401/291/349 386/278/349 370/278/349 394/278/349
f 392/117/350 367/117/350 378/117/350 398/290/350
f 385/289/351 387/292/351 373/117/351 366/123/351
f 386/111/352 389/288/352 365/288/352 370/111/352
f 400/293/353 388/117/353 377/117/353 395/290/353
f 365/288/354 366/123/354 372/123/354 371/277/354
f 358/111/355 359/277/355 379/288/355 382/294/355
f 360/123/356 361/117/356 383/293/356 381/123/356
f 391/278/357 358/278/357 382/278/357 399/295/357
f 359/277/358 360/123/358 381/123/358 379/288/358
f 398/290/359 378/117/359 388/117/359 400/293/359
f 382/294/360 379/288/360 389/288/360 386/111/360
f 381/123/361 383/293/361 387/292/361 385/289/361
f 399/295/362 382/278/362 386/278/362 401/291/362
f 379/288/363 381/123/363 385/289/363 389/288/363
f 380/278/362 399/295/362 401/291/362 384/278/362
f 383/293/359 398/290/359 400/293/359 387/292/359
f 364/278/357 391/278/357 399/295/357 380/278/357
f 387/292/364 400/293/364 395/290/364 373/117/364
f 361/117/350 392/117/350 398/290/350 383/293/350
f 384/278/365 401/291/365 394/278/365 374/278/365
f 370/111/366 371/277/366 396/277/366 394/111/366
f 372/123/367 373/117/367 395/290/367 397/123/367
f 371/277/368 372/123/368 397/123/368 396/277/368
f 362/115/369 363/112/369 390/287/369 393/115/369
f 361/117/370 362/115/370 393/115/370 392/117/370
f 363/112/371 358/278/371 391/278/371 390/287/371
f 404/123/372 405/117/372 409/117/372 408/123/372
f 402/111/373 403/277/373 407/277/373 406/111/373
f 403/277/374 404/123/374 408/123/374 407/277/374
f 338/123/375 339/117/375 405/117/375 404/123/375
f 336/111/376 337/277/376 403/277/376 402/111/376
f 361/117/377 360/123/377 408/123/377 409/117/377
f 359/277/378 358/111/378 406/111/378 407/277/378
f 339/117/379 361/117/379 409/117/379 405/117/379
f 384/278/380 374/278/380 377/117/380 388/117/380
f 374/278/381 375/277/381 376/123/381 377/117/381
f 388/117/382 378/117/382 380/278/382 384/278/382
f 378/117/383 367/117/383 364/278/383 380/278/383
f 367/117/384 368/115/384 369/112/384 364/278/384
f 207/105/385 190/105/385 193/105/385 177/105/385 196/105/385 199/105/385 201/105/385 186/105/385 204/105/385
f 256/105/386 410/105/386 258/105/386
f 410/105/387 257/105/387 263/105/387
f 410/105/388 260/105/388 258/105/388
f 410/105/389 262/105/389 259/105/389
f 256/105/390 261/105/390 410/105/390
f 410/105/391 259/105/391 257/105/391
f 410/105/392 263/105/392 260/105/392
f 410/105/393 261/105/393 262/105/393
f 269/272/394 265/219/394 412/211/394 411/231/394
f 265/235/395 266/271/395 413/206/395 412/235/395
f 271/269/396 272/273/396 416/221/396 414/233/396
f 275/227/397 276/156/397 418/156/397 417/222/397
f 279/225/398 269/272/398 411/231/398 415/225/398
f 276/156/399 279/225/399 415/225/399 418/156/399
f 272/273/400 275/227/400 417/222/400 416/221/400
f 266/206/401 271/214/401 414/216/401 413/206/401
f 224/207/402 226/206/402 420/206/402 419/270/402
f 225/212/403 227/156/403 426/156/403 425/204/403
f 230/155/404 229/203/404 421/218/404 423/155/404
f 226/206/405 228/214/405 422/214/405 420/206/405
f 227/156/406 230/155/406 423/155/406 426/156/406
f 228/215/407 231/213/407 424/226/407 422/215/407
f 231/213/408 225/212/408 425/204/408 424/226/408
f 229/203/409 224/211/409 419/219/409 421/218/409
f 457/79/410 458/82/410 430/81/410 428/80/410
f 458/82/411 459/84/411 432/83/411 430/81/411
f 459/84/412 460/86/412 434/85/412 432/83/412
f 460/86/413 461/88/413 436/87/413 434/85/413
f 461/88/414 462/90/414 438/89/414 436/87/414
f 462/90/415 457/92/415 428/91/415 438/89/415
f 432/83/416 441/94/416 440/93/416 430/81/416
f 438/89/417 444/96/417 443/95/417 436/87/417
f 430/81/418 440/93/418 439/97/418 428/80/418
f 434/85/419 442/98/419 441/94/419 432/83/419
f 428/91/420 439/99/420 444/96/420 438/89/420
f 436/87/421 443/95/421 442/98/421 434/85/421
f 442/98/422 448/101/422 447/100/422 441/94/422
f 440/93/423 446/93/423 592/102/423
f 439/99/424 445/99/424 590/104/424 450/103/424 444/96/424
f 443/95/425 449/95/425 448/101/425 442/98/425
f 441/94/426 447/100/426 446/93/426 440/93/426
f 444/96/427 450/103/427 449/95/427 443/95/427
f 447/100/428 448/101/428 147/105/428 149/105/428
f 446/93/429 447/100/429 149/105/429 150/105/429 591/106/429
f 148/105/430 445/97/430 592/102/430 446/93/430 591/106/430 150/105/430
f 450/103/431 590/104/431 445/99/431 148/105/431 152/105/431 589/107/431
f 151/105/432 147/105/432 448/101/432 449/95/432
f 450/103/433 589/107/433 152/105/433 151/105/433 449/95/433
f 623/108/434 628/110/434 638/109/434
f 427/111/435 637/114/435 636/113/435 437/112/435
f 435/115/436 437/112/436 636/113/436 635/116/436
f 433/117/437 435/115/437 635/116/437 634/118/437
f 638/119/438 629/122/438 452/121/438 451/120/438
f 431/123/439 433/117/439 634/118/439 632/124/439
f 456/125/440 451/126/440 457/92/440 462/90/440
f 455/127/441 456/125/441 462/90/441 461/88/441
f 454/128/442 455/127/442 461/88/442 460/86/442
f 453/129/443 454/128/443 460/86/443 459/84/443
f 452/121/444 453/129/444 459/84/444 458/82/444
f 451/120/445 452/121/445 458/82/445 457/79/445
f 596/130/446 464/93/446 482/132/446 593/131/446
f 599/105/447 592/105/447 446/105/447 596/105/447
f 465/105/448 588/135/448 598/134/448 594/133/448
f 298/136/449 583/139/449 485/138/449 191/137/449
f 191/137/450 485/138/450 486/141/450 192/140/450
f 192/140/451 486/141/451 469/143/451 173/142/451
f 486/141/452 470/145/452 466/144/452 469/143/452
f 485/138/453 471/146/453 470/145/453 486/141/453
f 583/139/454 581/147/454 471/146/454 485/138/454
f 468/148/455 465/151/455 472/150/455 484/149/455
f 168/152/456 468/148/456 484/149/456 190/153/456
f 584/154/457 585/157/457 491/156/457 488/155/457
f 585/157/458 586/159/458 493/158/458 491/156/458
f 465/151/459 475/161/459 487/160/459 472/150/459
f 581/147/460 584/154/460 488/155/460 471/146/460
f 471/146/461 488/155/461 489/162/461 470/145/461
f 470/145/462 489/162/462 476/163/462 466/144/462
f 494/164/463 479/167/463 467/166/463 478/165/463
f 493/158/464 480/168/464 479/167/464 494/164/464
f 586/159/465 582/169/465 480/168/465 493/158/465
f 474/170/466 473/173/466 492/172/466 490/171/466
f 475/161/467 474/170/467 490/171/467 487/160/467
f 587/174/468 304/177/468 208/176/468 496/175/468
f 496/175/469 208/176/469 209/179/469 497/178/469
f 582/169/470 587/174/470 496/175/470 480/168/470
f 480/168/471 496/175/471 497/178/471 479/167/471
f 479/167/472 497/178/472 483/180/472 467/166/472
f 497/178/473 209/179/473 189/181/473 483/180/473
f 482/182/474 167/185/474 207/184/474 495/183/474
f 481/186/475 464/187/475 482/182/475 495/183/475
f 465/105/476 468/189/476 597/188/476 594/133/476
f 475/161/190 588/161/190 463/170/190 474/170/190
f 498/190/477 213/193/477 214/192/477 499/191/477
f 499/191/478 214/192/478 215/195/478 500/194/478
f 467/166/479 483/180/479 498/190/479 478/196/479
f 478/196/480 498/190/480 499/191/480 477/197/480
f 477/197/481 499/191/481 500/194/481 476/198/481
f 476/198/482 500/194/482 469/200/482 466/199/482
f 500/194/483 215/195/483 173/201/483 469/200/483
f 483/180/484 189/181/484 213/193/484 498/190/484
f 473/105/190 474/170/190 463/202/190
f 488/155/485 502/155/485 501/203/485 489/162/485
f 489/162/486 501/203/486 504/163/486 476/163/486
f 494/164/487 503/205/487 505/204/487 493/158/487
f 476/198/488 504/207/488 506/206/488 477/197/488
f 493/158/489 505/204/489 507/208/489 491/156/489
f 477/197/490 506/206/490 508/209/490 478/196/490
f 478/165/491 508/210/491 503/205/491 494/164/491
f 491/156/492 507/208/492 502/155/492 488/155/492
f 502/155/493 515/155/493 514/203/493 501/203/493
f 501/203/494 514/203/494 509/211/494 504/163/494
f 503/205/495 516/213/495 510/212/495 505/204/495
f 504/207/496 509/207/496 511/206/496 506/206/496
f 505/204/497 510/212/497 512/156/497 507/208/497
f 506/206/498 511/206/498 513/214/498 508/209/498
f 508/210/499 513/215/499 516/213/499 503/205/499
f 507/208/500 512/156/500 515/155/500 502/155/500
f 694/206/501 519/206/501 521/217/501 695/216/501
f 702/218/502 553/220/502 549/219/502 700/219/502
f 697/221/503 524/224/503 518/223/503 698/222/503
f 699/156/504 520/156/504 523/225/504 696/225/504
f 705/226/505 558/228/505 559/227/505 706/204/505
f 703/215/506 555/215/506 558/228/506 705/226/506
f 707/156/507 562/156/507 563/229/507 704/155/507
f 701/206/508 552/206/508 555/230/508 703/214/508
f 704/155/509 563/229/509 553/220/509 702/218/509
f 696/225/510 523/225/510 522/232/510 692/231/510
f 706/204/511 559/212/511 562/156/511 707/156/511
f 698/222/512 518/223/512 520/156/512 699/156/512
f 695/233/513 521/234/513 524/224/513 697/221/513
f 693/235/514 517/207/514 519/206/514 694/206/514
f 692/231/515 522/232/515 517/211/515 693/211/515
f 522/232/516 530/237/516 525/236/516 517/211/516
f 521/234/517 529/239/517 532/238/517 524/224/517
f 518/223/518 526/241/518 528/240/518 520/156/518
f 524/224/519 532/238/519 526/241/519 518/223/519
f 523/225/520 531/242/520 530/237/520 522/232/520
f 520/156/521 528/240/521 531/242/521 523/225/521
f 519/206/522 527/244/522 529/243/522 521/217/522
f 517/207/523 525/245/523 527/244/523 519/206/523
f 534/246/524 575/249/524 576/248/524 540/247/524
f 531/242/525 539/251/525 538/250/525 530/237/525
f 528/240/526 536/156/526 539/251/526 531/242/526
f 527/244/527 535/206/527 537/252/527 529/243/527
f 525/245/528 533/253/528 535/206/528 527/244/528
f 530/237/529 538/250/529 533/254/529 525/236/529
f 529/239/530 537/255/530 540/247/530 532/238/530
f 526/241/531 534/246/531 536/156/531 528/240/531
f 537/255/532 545/257/532 548/256/532 540/247/532
f 534/246/533 542/258/533 544/156/533 536/156/533
f 540/247/534 548/256/534 542/258/534 534/246/534
f 539/251/535 547/260/535 546/259/535 538/250/535
f 536/156/536 544/156/536 547/260/536 539/251/536
f 535/206/537 543/206/537 545/261/537 537/252/537
f 533/253/538 541/262/538 543/206/538 535/206/538
f 538/250/539 546/259/539 541/263/539 533/254/539
f 565/214/540 555/230/540 552/206/540 566/264/540
f 567/265/541 563/229/541 562/156/541 568/156/541
f 569/266/542 553/220/542 563/229/542 567/265/542
f 570/267/543 559/227/543 558/228/543 571/268/543
f 568/156/544 562/156/544 559/212/544 570/267/544
f 571/268/545 558/228/545 555/215/545 565/269/545
f 572/219/546 549/219/546 553/220/546 569/266/546
f 566/264/547 552/206/547 549/270/547 572/270/547
f 700/270/548 549/270/548 552/206/548 701/206/548
f 551/271/549 566/264/549 572/270/549 550/235/549
f 550/219/550 572/219/550 569/266/550 554/272/550
f 557/273/551 571/268/551 565/269/551 556/269/551
f 561/156/552 568/156/552 570/267/552 560/227/552
f 560/227/553 570/267/553 571/268/553 557/273/553
f 554/272/554 569/266/554 567/265/554 564/225/554
f 564/225/555 567/265/555 568/156/555 561/156/555
f 556/214/556 565/214/556 566/264/556 551/206/556
f 576/248/557 580/247/557 578/238/557 574/274/557
f 526/241/558 573/275/558 575/249/558 534/246/558
f 532/238/559 574/274/559 573/275/559 526/241/559
f 540/247/560 576/248/560 574/274/560 532/238/560
f 578/238/561 580/247/561 579/246/561 577/275/561
f 574/274/562 578/238/562 577/275/562 573/275/562
f 573/275/563 577/275/563 579/246/563 575/249/563
f 575/249/564 579/246/564 580/247/564 576/248/564
f 481/186/565 495/183/565 587/174/565 582/169/565
f 495/183/566 207/184/566 304/177/566 587/174/566
f 492/172/567 481/186/567 582/169/567 586/159/567
f 472/276/568 487/160/568 584/154/568 581/147/568
f 490/171/569 492/172/569 586/159/569 585/157/569
f 487/160/570 490/171/570 585/157/570 584/154/570
f 484/149/571 472/276/571 581/147/571 583/139/571
f 190/153/572 484/149/572 583/139/572 298/136/572
f 597/188/573 314/105/573 152/105/573 589/107/573
f 481/186/574 492/172/574 473/105/574 464/187/574
f 598/134/575 595/99/575 445/99/575 590/104/575
f 592/102/576 445/97/576 439/97/576 440/93/576
f 593/131/577 311/105/577 150/105/577 591/106/577
f 599/105/578 595/105/578 445/105/578 592/105/578
f 473/105/579 463/105/579 595/105/579 599/105/579
f 482/132/580 167/185/580 311/105/580 593/131/580
f 588/135/581 463/99/581 595/99/581 598/134/581
f 468/189/582 168/105/582 314/105/582 597/188/582
f 450/103/583 594/133/583 597/188/583 589/107/583
f 473/105/584 599/105/584 596/105/584 464/105/584
f 446/93/585 596/130/585 593/131/585 591/106/585
f 450/103/586 594/133/586 598/134/586 590/104/586
f 431/123/190 601/123/190 602/117/190 433/117/190
f 429/277/190 427/111/190 437/112/190 610/112/190 605/111/190 606/277/190
f 433/117/190 602/117/190 603/115/190 435/115/190
f 429/277/190 600/277/190 601/123/190 431/123/190
f 435/115/190 603/115/190 604/112/190 437/112/190
f 600/277/190 606/277/190 607/123/190 601/123/190
f 603/115/301 609/115/301 610/112/301 604/112/301
f 601/123/190 607/123/190 608/117/190 602/117/190
f 602/117/587 608/117/587 609/115/587 603/115/587
f 605/111/588 611/111/588 612/277/588 606/277/588
f 610/112/589 616/112/589 611/278/589 605/278/589
f 608/117/590 614/117/590 615/115/590 609/115/590
f 606/277/591 612/277/591 613/123/591 607/123/591
f 609/115/592 615/115/592 616/112/592 610/112/592
f 607/123/593 613/123/593 614/117/593 608/117/593
f 616/112/594 622/112/594 617/278/594 611/278/594
f 614/117/595 620/117/595 621/115/595 615/115/595
f 612/277/596 618/277/596 619/123/596 613/123/596
f 615/115/597 621/115/597 622/112/597 616/112/597
f 613/123/598 619/123/598 620/117/598 614/117/598
f 611/111/599 617/111/599 618/277/599 612/277/599
f 629/122/600 631/279/600 453/129/600 452/121/600
f 427/111/601 429/277/601 630/280/601 637/114/601
f 631/279/602 633/281/602 454/128/602 453/129/602
f 633/281/603 624/282/603 455/127/603 454/128/603
f 624/282/604 623/108/604 456/125/604 455/127/604
f 623/108/605 638/109/605 451/126/605 456/125/605
f 628/283/606 637/114/606 630/280/606 627/284/606
f 627/284/607 630/280/607 632/124/607 626/285/607
f 626/285/608 632/124/608 634/118/608 625/286/608
f 625/286/609 634/118/609 635/116/609 624/282/609
f 624/282/610 635/116/610 636/113/610 623/108/610
f 429/277/611 431/123/611 632/124/611 630/280/611
f 633/281/612 625/286/612 624/282/612
f 631/279/613 626/285/613 625/286/613 633/281/613
f 629/122/614 627/284/614 626/285/614 631/279/614
f 638/119/615 628/283/615 627/284/615 629/122/615
f 636/113/616 637/114/616 628/110/616 623/108/616
f 636/113/617 628/283/617 637/114/617
f 635/116/618 634/118/618 625/286/618
f 621/115/619 643/115/619 644/112/619 622/112/619
f 639/278/620 687/278/620 683/278/620 617/278/620
f 641/123/621 689/123/621 688/277/621 640/277/621
f 622/112/622 644/112/622 639/278/622 617/278/622
f 620/117/623 642/117/623 643/115/623 621/115/623
f 618/277/624 684/277/624 685/123/624 619/123/624
f 671/287/625 650/112/625 645/278/625 672/278/625
f 673/117/626 648/117/626 649/115/626 674/115/626
f 651/111/627 652/277/627 646/288/627
f 674/115/343 649/115/343 650/112/343 671/287/343
f 670/288/628 646/288/628 647/123/628 666/289/628
f 647/123/629 653/123/629 654/117/629
f 677/277/346 656/277/346 657/123/346 678/123/346
f 678/123/630 657/123/630 658/117/630 676/290/630
f 675/111/631 655/111/631 656/277/631 677/277/631
f 682/291/632 675/278/632 651/278/632 667/278/632
f 673/117/357 679/290/357 659/117/357 648/117/357
f 666/289/633 647/123/633 654/117/633 668/292/633
f 667/111/634 651/111/634 646/288/634 670/288/634
f 681/293/635 676/290/635 658/117/635 669/117/635
f 646/288/354 652/277/354 653/123/354 647/123/354
f 639/111/636 663/294/636 660/288/636 640/277/636
f 641/123/637 662/123/637 664/293/637 642/117/637
f 672/278/350 680/295/350 663/278/350 639/278/350
f 640/277/638 660/288/638 662/123/638 641/123/638
f 679/290/639 681/293/639 669/117/639 659/117/639
f 663/294/640 667/111/640 670/288/640 660/288/640
f 662/123/641 666/289/641 668/292/641 664/293/641
f 680/295/642 682/291/642 667/278/642 663/278/642
f 660/288/643 670/288/643 666/289/643 662/123/643
f 661/278/642 665/278/642 682/291/642 680/295/642
f 664/293/639 668/292/639 681/293/639 679/290/639
f 645/278/350 661/278/350 680/295/350 672/278/350
f 668/292/644 654/117/644 676/290/644 681/293/644
f 642/117/357 664/293/357 679/290/357 673/117/357
f 665/278/645 655/278/645 675/278/645 682/291/645
f 651/111/646 675/111/646 677/277/646 652/277/646
f 653/123/647 678/123/647 676/290/647 654/117/647
f 652/277/368 677/277/368 678/123/368 653/123/368
f 643/115/369 674/115/369 671/287/369 644/112/369
f 642/117/648 673/117/648 674/115/648 643/115/648
f 644/112/649 671/287/649 672/278/649 639/278/649
f 685/123/650 689/123/650 690/117/650 686/117/650
f 683/111/651 687/111/651 688/277/651 684/277/651
f 684/277/652 688/277/652 689/123/652 685/123/652
f 619/123/653 685/123/653 686/117/653 620/117/653
f 617/111/654 683/111/654 684/277/654 618/277/654
f 642/117/655 690/117/655 689/123/655 641/123/655
f 640/277/656 688/277/656 687/111/656 639/111/656
f 620/117/657 686/117/657 690/117/657 642/117/657
f 665/278/658 669/117/658 658/117/658 655/278/658
f 655/278/659 658/117/659 657/123/659 656/277/659
f 669/117/660 665/278/660 661/278/660 659/117/660
f 659/117/383 661/278/383 645/278/383 648/117/383
f 648/117/661 645/278/661 650/112/661 649/115/661
f 207/105/662 495/105/662 481/105/662 492/105/662 490/105/662 487/105/662 472/105/662 484/105/662 190/105/662
f 541/105/663 543/105/663 691/105/663
f 691/105/664 548/105/664 542/105/664
f 691/105/665 543/105/665 545/105/665
f 691/105/666 544/105/666 547/105/666
f 541/105/667 691/105/667 546/105/667
f 691/105/668 542/105/668 544/105/668
f 691/105/669 545/105/669 548/105/669
f 691/105/670 547/105/670 546/105/670
f 554/272/671 692/231/671 693/211/671 550/219/671
f 550/235/672 693/235/672 694/206/672 551/271/672
f 556/269/673 695/233/673 697/221/673 557/273/673
f 560/227/674 698/222/674 699/156/674 561/156/674
f 564/225/675 696/225/675 692/231/675 554/272/675
f 561/156/676 699/156/676 696/225/676 564/225/676
f 557/273/677 697/221/677 698/222/677 560/227/677
f 551/206/678 694/206/678 695/216/678 556/214/678
f 509/207/679 700/270/679 701/206/679 511/206/679
f 510/212/680 706/204/680 707/156/680 512/156/680
f 515/155/681 704/155/681 702/218/681 514/203/681
f 511/206/682 701/206/682 703/214/682 513/214/682
f 512/156/683 707/156/683 704/155/683 515/155/683
f 513/215/684 703/215/684 705/226/684 516/213/684
f 516/213/685 705/226/685 706/204/685 510/212/685
f 514/203/686 702/218/686 700/219/686 509/211/686
l 123 324
l 427 605
